<svg width="1080" height="1080" viewBox="0 0 1080 1080" fill="none" xmlns="http://www.w3.org/2000/svg">
<rect width="1080" height="1080" fill="#FC40BA"/>
<path d="M871.768 812.127C865.931 811.349 857.954 809.792 847.836 807.457C837.718 805.512 827.406 801.426 816.899 795.199C806.392 788.973 797.442 779.439 790.048 766.597C782.655 754.145 778.958 737.412 778.958 716.398C778.958 692.271 783.822 665.81 793.551 637.013C803.668 607.827 815.926 577.474 830.325 545.954C844.723 514.433 858.537 483.302 871.768 452.56C882.275 428.044 887.529 409.365 887.529 396.523C887.529 383.682 882.664 377.261 872.936 377.261C862.04 377.261 845.696 386.016 823.904 403.528C802.501 420.65 777.596 446.723 749.189 481.745C741.795 491.085 732.261 504.121 720.587 520.854C708.912 537.198 696.46 555.488 683.229 575.723C669.998 595.569 656.962 615.805 644.12 636.429C631.668 656.665 620.577 675.344 610.849 692.466C601.509 709.588 594.699 723.208 590.419 733.326C585.36 745.389 579.523 753.561 572.907 757.842C566.292 762.511 560.066 764.846 554.228 764.846C549.17 764.846 544.694 763.484 540.803 760.76C537.301 758.036 535.55 754.729 535.55 750.837C535.55 748.502 536.133 746.557 537.301 745C539.636 740.33 545.862 729.045 555.98 711.145C566.097 693.244 577.577 669.506 590.419 639.932C603.26 609.968 615.518 575.334 627.193 536.031C639.256 496.338 648.206 452.56 654.043 404.695C654.822 399.247 655.211 393.41 655.211 387.184C655.211 373.564 652.876 363.641 648.206 357.415C643.536 350.799 637.31 347.491 629.527 347.491C620.966 347.491 611.238 351.188 600.342 358.582C589.446 365.976 578.355 376.677 567.07 390.686C547.613 415.202 530.491 437.967 515.703 458.981C500.916 479.605 487.296 500.23 474.843 520.854C462.78 541.479 450.717 563.465 438.653 586.814C426.979 610.162 414.526 636.429 401.296 665.615C388.065 694.412 372.888 727.878 355.766 766.014C353.042 772.24 348.372 776.715 341.757 779.439C335.531 782.163 329.693 783.525 324.245 783.525C318.797 783.525 314.322 782.358 310.82 780.023C307.318 777.688 306.15 774.38 307.318 770.1C317.435 754.534 328.331 734.882 340.006 711.145C351.68 687.407 363.354 661.529 375.028 633.511C387.092 605.103 398.182 576.502 408.3 547.705C418.807 518.519 427.757 491.085 435.151 465.401C442.545 439.329 447.603 416.759 450.327 397.691C451.106 391.464 451.689 385.627 452.079 380.179C452.468 374.731 452.662 369.478 452.662 364.419C452.662 334.455 446.241 313.052 433.4 300.211C420.947 287.369 404.798 280.948 384.952 280.948C368.219 280.948 349.929 284.84 330.083 292.622C310.625 300.016 290.779 310.328 270.544 323.559C250.698 336.79 231.63 352.161 213.34 369.673C195.05 386.795 178.901 405.279 164.892 425.125C150.883 444.582 140.181 464.429 132.788 484.664C127.729 499.062 123.837 512.877 121.113 526.108C118.778 538.949 117.611 551.013 117.611 562.298C117.611 584.09 121.502 602.574 129.285 617.751C137.457 632.927 148.159 644.407 161.39 652.19C175.01 659.972 189.602 663.864 205.168 663.864C210.616 663.864 216.648 663.28 223.263 662.113C230.268 660.556 236.105 659 240.775 657.443C252.06 653.162 262.956 646.547 273.462 637.597C283.969 628.257 293.309 617.556 301.481 605.493C309.653 593.429 316.073 581.171 320.743 568.719C325.413 556.266 327.748 544.592 327.748 533.696C327.748 522.411 324.635 513.071 318.408 505.678C312.182 498.284 302.259 494.587 288.639 494.587C287.082 494.587 285.331 494.782 283.386 495.171C281.829 495.171 280.078 495.171 278.132 495.171H276.381C273.657 495.171 271.128 494.782 268.793 494.003C266.458 492.836 265.29 491.474 265.29 489.917C265.29 488.361 267.236 486.61 271.128 484.664C275.408 482.718 282.996 481.745 293.892 481.745C311.404 481.745 324.44 486.999 333.001 497.506C341.951 507.623 346.427 520.66 346.427 536.614C346.427 551.013 342.535 566.578 334.752 583.311C326.969 600.045 315.295 615.999 299.73 631.176C284.164 646.352 264.512 658.805 240.775 668.534C226.765 673.982 213.145 676.706 199.915 676.706C180.457 676.706 161.973 671.841 144.462 662.113C126.95 651.995 112.747 637.791 101.851 619.502C90.9548 600.823 85.5068 578.836 85.5068 553.542C85.5068 542.257 86.6743 530.388 89.0091 517.936C91.7331 505.094 96.0137 491.863 101.851 478.243C114.692 448.279 132.009 420.65 153.801 395.356C175.982 369.673 200.498 347.491 227.349 328.813C254.2 309.745 281.44 294.957 309.069 284.45C336.698 273.944 362.381 268.69 386.119 268.69C414.916 268.69 438.653 277.251 457.332 294.374C476.4 311.496 485.934 339.125 485.934 377.261C485.934 379.985 485.739 383.682 485.35 388.351C485.35 392.632 485.156 395.94 484.767 398.274C482.432 418.121 478.346 437.967 472.509 457.813C467.061 477.659 461.029 496.727 454.413 515.017C453.246 518.13 452.273 521.438 451.495 524.94C451.106 528.053 450.911 530.194 450.911 531.361C450.911 533.307 451.3 534.28 452.079 534.28C453.635 534.28 456.748 530.194 461.418 522.022C470.368 505.678 478.346 491.474 485.35 479.411C492.744 466.958 499.943 455.673 506.948 445.555C513.952 435.438 521.54 425.125 529.712 414.618C537.884 404.112 547.224 392.437 557.731 379.596C569.794 365.197 583.609 353.718 599.174 345.157C614.74 336.595 629.722 332.315 644.12 332.315C656.962 332.315 667.858 336.595 676.808 345.157C685.758 353.718 690.234 368.311 690.234 388.935C690.234 391.27 690.234 393.216 690.234 394.772C690.234 396.329 690.039 398.664 689.65 401.777C686.148 439.134 678.754 475.908 667.469 512.098C656.184 547.9 644.509 584.09 632.446 620.669C644.509 601.99 660.853 578.253 681.478 549.456C702.102 520.66 724.673 490.89 749.189 460.148C779.153 422.79 806.976 394.772 832.66 376.093C858.343 357.415 879.551 348.075 896.284 348.075C917.298 348.075 927.805 360.917 927.805 386.6C927.805 396.329 925.859 408.003 921.968 421.623C918.465 435.243 912.823 449.641 905.04 464.818C896.479 481.94 886.945 501.786 876.438 524.356C866.32 546.538 856.592 569.886 847.252 594.402C837.913 618.918 830.13 643.045 823.904 666.782C818.067 690.131 815.148 711.728 815.148 731.575C815.148 752.977 820.012 770.294 829.741 783.525C839.859 797.145 857.175 803.566 881.691 802.788H885.194C891.031 802.788 893.949 803.955 893.949 806.29C893.949 807.846 892.004 809.403 888.112 810.96C884.221 812.516 878.773 812.905 871.768 812.127Z" fill="black"/>
</svg>
