<svg width="67" height="76" viewBox="0 0 67 76" fill="none" xmlns="http://www.w3.org/2000/svg">
<path d="M27.0085 4.17358C27.0359 10.2565 24.4611 21.2597 44.2678 23.9192C31.9725 25.3451 27.2739 32.9807 27.0108 42.7749C26.7093 35.3819 27.9713 26.8452 7.80042 24.5054C27.1599 23.2755 26.8914 10.4248 27.0085 4.17358Z" stroke="#FC40BA" stroke-width="3.18256" stroke-miterlimit="1.5" stroke-linecap="round" stroke-linejoin="round"/>
<path d="M46.2312 33.8484C46.2586 39.9313 41.1014 51.2257 60.9078 53.8852C48.6128 55.311 46.4967 62.6552 46.2335 72.4494C45.932 65.0563 45.3154 56.4549 31.3245 53.9877C44.8858 52.6874 44.6571 42.1494 46.2312 33.8484Z" stroke="#FC40BA" stroke-width="3.18256" stroke-miterlimit="1.5" stroke-linecap="round" stroke-linejoin="round"/>
<path d="M6 2.40527C9.19688 5.3769 11.7316 8.82389 15.0124 11.7313" stroke="#FC40BA" stroke-width="3.18256" stroke-miterlimit="1.5" stroke-linecap="round" stroke-linejoin="round"/>
<path d="M37.0288 13.9303C39.4219 12.3458 41.6846 10.5416 43.6237 8.59399" stroke="#FC40BA" stroke-width="3.18256" stroke-miterlimit="1.5" stroke-linecap="round" stroke-linejoin="round"/>
<path d="M15.8326 34.4023C12.6158 36.7979 9.62849 39.4649 6.71899 42.102" stroke="#FC40BA" stroke-width="3.18256" stroke-miterlimit="1.5" stroke-linecap="round" stroke-linejoin="round"/>
<path d="M35.8346 39.8958C36.1857 40.3272 36.6094 40.7203 36.9919 41.1343" stroke="#FC40BA" stroke-width="3.18256" stroke-miterlimit="1.5" stroke-linecap="round" stroke-linejoin="round"/>
<path d="M31.8485 64.5029C32.6139 63.8905 33.4065 63.3005 34.1602 62.6785" stroke="#FC40BA" stroke-width="3.18256" stroke-miterlimit="1.5" stroke-linecap="round" stroke-linejoin="round"/>
<path d="M54.3641 44.5772C57.7513 42.1143 60.6977 39.4085 63.5493 36.5483" stroke="#FC40BA" stroke-width="3.18256" stroke-miterlimit="1.5" stroke-linecap="round" stroke-linejoin="round"/>
<path d="M55.1904 64.7166C59.1838 66.7123 61.9627 70.8228 64.726 73.8261" stroke="#FC40BA" stroke-width="3.18256" stroke-miterlimit="1.5" stroke-linecap="round" stroke-linejoin="round"/>
<path d="M26.0444 62.6018C24.1948 64.293 21.138 65.986 18.2172 65.6463C18.0119 67.9361 16.8742 70.8751 14.4172 72.2009C11.701 70.6049 10.1409 68.5511 10.0082 65.7904C6.74116 65.8598 3.75669 64.4045 2 62.2603C3.62022 60.0142 6.081 58.1988 9.53532 58.2185C9.94871 55.1261 11.7878 52.976 14.0883 50.613C17.1383 52.432 18.5306 55.0786 18.9019 58.0739C22.1185 57.9883 25.0656 59.9337 26.2802 62.2789" stroke="#8A2145" stroke-width="2.61063" stroke-miterlimit="1.5" stroke-linecap="round" stroke-linejoin="round"/>
</svg>
