<svg width="296" height="1371" viewBox="0 0 296 1371" fill="none" xmlns="http://www.w3.org/2000/svg">
<circle cx="148.035" cy="27.1731" r="27.1731" transform="rotate(90 148.035 27.1731)" fill="#32BB30"/>
<circle cx="148.036" cy="143.729" r="44.3827" transform="rotate(90 148.036 143.729)" fill="#32BB30"/>
<path d="M126.436 152.376C125.289 152.376 124.285 152.15 123.424 151.697C122.579 151.244 121.809 150.58 121.115 149.704L122.858 147.961C123.296 148.595 123.809 149.108 124.398 149.501C124.987 149.893 125.696 150.089 126.527 150.089C127.402 150.089 128.097 149.901 128.61 149.523C129.138 149.146 129.403 148.61 129.403 147.915C129.403 147.387 129.267 146.957 128.995 146.625C128.723 146.293 128.361 146.021 127.908 145.81C127.47 145.583 126.98 145.387 126.436 145.221C125.908 145.04 125.372 144.843 124.828 144.632C124.3 144.406 123.809 144.126 123.357 143.794C122.919 143.462 122.564 143.032 122.292 142.503C122.021 141.975 121.885 141.303 121.885 140.488C121.885 139.552 122.111 138.76 122.564 138.11C123.032 137.446 123.658 136.941 124.443 136.593C125.228 136.246 126.104 136.072 127.07 136.072C128.006 136.072 128.874 136.276 129.674 136.684C130.474 137.091 131.131 137.612 131.644 138.246L129.901 139.99C129.448 139.477 128.98 139.077 128.497 138.79C128.029 138.503 127.531 138.36 127.002 138.36C126.157 138.36 125.508 138.526 125.055 138.858C124.602 139.175 124.376 139.658 124.376 140.307C124.376 140.79 124.511 141.183 124.783 141.484C125.07 141.771 125.44 142.02 125.893 142.232C126.346 142.428 126.836 142.617 127.365 142.798C127.908 142.979 128.451 143.183 128.995 143.409C129.538 143.636 130.037 143.93 130.489 144.292C130.942 144.64 131.305 145.092 131.576 145.651C131.863 146.21 132.007 146.912 132.007 147.757C132.007 149.176 131.501 150.301 130.489 151.131C129.493 151.961 128.142 152.376 126.436 152.376ZM126.074 154.414V134.035H127.885V154.414H126.074ZM138.845 152.376C137.743 152.376 136.762 152.188 135.901 151.81C135.041 151.418 134.316 150.852 133.727 150.112L135.493 148.346C135.811 148.829 136.256 149.214 136.829 149.501C137.418 149.787 138.075 149.931 138.8 149.931C139.464 149.931 140.045 149.81 140.543 149.568C141.041 149.327 141.434 148.98 141.721 148.527C142.007 148.074 142.151 147.538 142.151 146.919C142.151 146.27 142.007 145.734 141.721 145.311C141.449 144.874 141.079 144.549 140.611 144.338C140.158 144.111 139.668 143.998 139.139 143.998C138.535 143.998 137.992 144.066 137.509 144.202C137.041 144.338 136.58 144.579 136.128 144.926L136.195 143.296C136.437 142.979 136.716 142.722 137.033 142.526C137.35 142.315 137.72 142.156 138.143 142.051C138.566 141.945 139.064 141.892 139.637 141.892C140.754 141.892 141.69 142.126 142.445 142.594C143.215 143.062 143.796 143.689 144.189 144.474C144.581 145.243 144.778 146.104 144.778 147.055C144.778 148.081 144.521 148.995 144.008 149.795C143.51 150.595 142.815 151.229 141.924 151.697C141.034 152.15 140.007 152.376 138.845 152.376ZM136.128 144.926L134.701 143.5L135.403 136.299H137.781L136.965 143.794L136.128 144.926ZM135.856 138.631L135.403 136.299H143.894V138.631H135.856ZM153.041 152.376C151.848 152.376 150.754 152.044 149.758 151.38C148.776 150.701 147.991 149.75 147.403 148.527C146.814 147.304 146.519 145.862 146.519 144.202C146.519 142.541 146.806 141.107 147.38 139.899C147.969 138.677 148.754 137.733 149.735 137.069C150.716 136.405 151.803 136.072 152.996 136.072C154.203 136.072 155.298 136.405 156.279 137.069C157.26 137.733 158.038 138.677 158.611 139.899C159.2 141.107 159.495 142.549 159.495 144.224C159.495 145.885 159.2 147.327 158.611 148.549C158.038 149.772 157.26 150.716 156.279 151.38C155.313 152.044 154.234 152.376 153.041 152.376ZM152.996 149.931C153.781 149.931 154.46 149.719 155.034 149.297C155.607 148.874 156.053 148.24 156.37 147.395C156.702 146.549 156.868 145.485 156.868 144.202C156.868 142.934 156.702 141.877 156.37 141.032C156.053 140.186 155.6 139.56 155.011 139.152C154.437 138.729 153.766 138.518 152.996 138.518C152.226 138.518 151.546 138.729 150.958 139.152C150.384 139.56 149.939 140.186 149.622 141.032C149.305 141.862 149.146 142.919 149.146 144.202C149.146 145.485 149.305 146.549 149.622 147.395C149.939 148.24 150.384 148.874 150.958 149.297C151.546 149.719 152.226 149.931 152.996 149.931ZM167.879 152.376C166.687 152.376 165.592 152.044 164.596 151.38C163.614 150.701 162.829 149.75 162.241 148.527C161.652 147.304 161.358 145.862 161.358 144.202C161.358 142.541 161.644 141.107 162.218 139.899C162.807 138.677 163.592 137.733 164.573 137.069C165.554 136.405 166.641 136.072 167.834 136.072C169.042 136.072 170.136 136.405 171.117 137.069C172.099 137.733 172.876 138.677 173.45 139.899C174.038 141.107 174.333 142.549 174.333 144.224C174.333 145.885 174.038 147.327 173.45 148.549C172.876 149.772 172.099 150.716 171.117 151.38C170.151 152.044 169.072 152.376 167.879 152.376ZM167.834 149.931C168.619 149.931 169.298 149.719 169.872 149.297C170.446 148.874 170.891 148.24 171.208 147.395C171.54 146.549 171.706 145.485 171.706 144.202C171.706 142.934 171.54 141.877 171.208 141.032C170.891 140.186 170.438 139.56 169.849 139.152C169.276 138.729 168.604 138.518 167.834 138.518C167.064 138.518 166.385 138.729 165.796 139.152C165.222 139.56 164.777 140.186 164.46 141.032C164.143 141.862 163.984 142.919 163.984 144.202C163.984 145.485 164.143 146.549 164.46 147.395C164.777 148.24 165.222 148.874 165.796 149.297C166.385 149.719 167.064 149.931 167.834 149.931Z" fill="white"/>
<circle cx="148.036" cy="291.987" r="60.6773" transform="rotate(90 148.036 291.987)" stroke="#2D3C31" stroke-width="3.60459"/>
<path d="M115.379 302.044C113.985 302.044 112.765 301.769 111.72 301.219C110.693 300.669 109.757 299.862 108.914 298.798L111.032 296.68C111.564 297.45 112.187 298.074 112.903 298.55C113.618 299.027 114.48 299.266 115.489 299.266C116.553 299.266 117.396 299.036 118.02 298.578C118.662 298.119 118.983 297.468 118.983 296.625C118.983 295.983 118.818 295.46 118.488 295.056C118.158 294.653 117.717 294.323 117.167 294.066C116.635 293.791 116.039 293.552 115.379 293.351C114.737 293.131 114.086 292.892 113.425 292.635C112.784 292.36 112.187 292.021 111.637 291.617C111.105 291.214 110.674 290.691 110.344 290.049C110.014 289.407 109.849 288.591 109.849 287.601C109.849 286.464 110.124 285.501 110.674 284.712C111.243 283.905 112.004 283.291 112.958 282.869C113.912 282.447 114.975 282.236 116.149 282.236C117.286 282.236 118.341 282.484 119.313 282.979C120.285 283.474 121.083 284.107 121.707 284.877L119.588 286.996C119.038 286.372 118.469 285.886 117.882 285.537C117.314 285.189 116.709 285.015 116.067 285.015C115.04 285.015 114.251 285.216 113.701 285.62C113.15 286.005 112.875 286.592 112.875 287.381C112.875 287.968 113.04 288.444 113.37 288.811C113.719 289.16 114.168 289.462 114.719 289.719C115.269 289.958 115.865 290.187 116.507 290.407C117.167 290.627 117.827 290.875 118.488 291.15C119.148 291.425 119.753 291.783 120.303 292.223C120.854 292.645 121.294 293.195 121.624 293.873C121.972 294.552 122.147 295.405 122.147 296.432C122.147 298.156 121.532 299.522 120.303 300.531C119.093 301.54 117.451 302.044 115.379 302.044ZM114.939 304.52V279.76H117.14V304.52H114.939ZM128.226 301.769V282.511H131.335V301.769H128.226ZM124.375 285.345V282.511H131.06V285.345H124.375ZM142.49 302.044C141.041 302.044 139.712 301.641 138.501 300.834C137.309 300.009 136.355 298.853 135.64 297.367C134.925 295.882 134.567 294.13 134.567 292.113C134.567 290.095 134.915 288.353 135.612 286.885C136.328 285.4 137.281 284.254 138.474 283.447C139.666 282.639 140.986 282.236 142.435 282.236C143.903 282.236 145.232 282.639 146.424 283.447C147.617 284.254 148.561 285.4 149.258 286.885C149.973 288.353 150.331 290.104 150.331 292.14C150.331 294.158 149.973 295.909 149.258 297.395C148.561 298.881 147.617 300.027 146.424 300.834C145.251 301.641 143.939 302.044 142.49 302.044ZM142.435 299.073C143.389 299.073 144.214 298.816 144.911 298.303C145.608 297.789 146.149 297.019 146.535 295.992C146.938 294.965 147.14 293.672 147.14 292.113C147.14 290.572 146.938 289.288 146.535 288.261C146.149 287.234 145.599 286.473 144.884 285.978C144.187 285.464 143.371 285.207 142.435 285.207C141.5 285.207 140.675 285.464 139.959 285.978C139.262 286.473 138.721 287.234 138.336 288.261C137.951 289.27 137.758 290.554 137.758 292.113C137.758 293.672 137.951 294.965 138.336 295.992C138.721 297.019 139.262 297.789 139.959 298.303C140.675 298.816 141.5 299.073 142.435 299.073ZM160.518 302.044C159.069 302.044 157.739 301.641 156.529 300.834C155.337 300.009 154.383 298.853 153.668 297.367C152.952 295.882 152.595 294.13 152.595 292.113C152.595 290.095 152.943 288.353 153.64 286.885C154.355 285.4 155.309 284.254 156.501 283.447C157.693 282.639 159.014 282.236 160.463 282.236C161.93 282.236 163.26 282.639 164.452 283.447C165.644 284.254 166.589 285.4 167.286 286.885C168.001 288.353 168.359 290.104 168.359 292.14C168.359 294.158 168.001 295.909 167.286 297.395C166.589 298.881 165.644 300.027 164.452 300.834C163.278 301.641 161.967 302.044 160.518 302.044ZM160.463 299.073C161.417 299.073 162.242 298.816 162.939 298.303C163.636 297.789 164.177 297.019 164.562 295.992C164.966 294.965 165.167 293.672 165.167 292.113C165.167 290.572 164.966 289.288 164.562 288.261C164.177 287.234 163.627 286.473 162.911 285.978C162.215 285.464 161.398 285.207 160.463 285.207C159.528 285.207 158.702 285.464 157.987 285.978C157.29 286.473 156.749 287.234 156.364 288.261C155.979 289.27 155.786 290.554 155.786 292.113C155.786 293.672 155.979 294.965 156.364 295.992C156.749 297.019 157.29 297.789 157.987 298.303C158.702 298.816 159.528 299.073 160.463 299.073ZM178.546 302.044C177.097 302.044 175.767 301.641 174.556 300.834C173.364 300.009 172.411 298.853 171.695 297.367C170.98 295.882 170.622 294.13 170.622 292.113C170.622 290.095 170.971 288.353 171.668 286.885C172.383 285.4 173.337 284.254 174.529 283.447C175.721 282.639 177.042 282.236 178.491 282.236C179.958 282.236 181.288 282.639 182.48 283.447C183.672 284.254 184.617 285.4 185.314 286.885C186.029 288.353 186.386 290.104 186.386 292.14C186.386 294.158 186.029 295.909 185.314 297.395C184.617 298.881 183.672 300.027 182.48 300.834C181.306 301.641 179.995 302.044 178.546 302.044ZM178.491 299.073C179.444 299.073 180.27 298.816 180.967 298.303C181.664 297.789 182.205 297.019 182.59 295.992C182.993 294.965 183.195 293.672 183.195 292.113C183.195 290.572 182.993 289.288 182.59 288.261C182.205 287.234 181.654 286.473 180.939 285.978C180.242 285.464 179.426 285.207 178.491 285.207C177.555 285.207 176.73 285.464 176.015 285.978C175.318 286.473 174.777 287.234 174.391 288.261C174.006 289.27 173.814 290.554 173.814 292.113C173.814 293.672 174.006 294.965 174.391 295.992C174.777 297.019 175.318 297.789 176.015 298.303C176.73 298.816 177.555 299.073 178.491 299.073Z" fill="#2D3B31"/>
<circle cx="148.036" cy="467.417" r="73.7463" transform="rotate(90 148.036 467.417)" stroke="#2D3C31" stroke-width="4.38097"/>
<path d="M105.415 480.011C103.72 480.011 102.238 479.677 100.967 479.008C99.7192 478.34 98.5823 477.359 97.5569 476.066L100.132 473.491C100.778 474.427 101.536 475.185 102.405 475.765C103.275 476.344 104.322 476.634 105.548 476.634C106.841 476.634 107.867 476.356 108.625 475.798C109.405 475.241 109.795 474.45 109.795 473.424C109.795 472.644 109.594 472.009 109.193 471.518C108.792 471.028 108.257 470.627 107.588 470.315C106.942 469.98 106.217 469.69 105.415 469.445C104.634 469.178 103.843 468.888 103.041 468.576C102.26 468.241 101.536 467.829 100.867 467.339C100.221 466.848 99.6969 466.213 99.2956 465.433C98.8944 464.653 98.6938 463.661 98.6938 462.457C98.6938 461.075 99.0281 459.904 99.6969 458.946C100.388 457.965 101.313 457.218 102.472 456.706C103.631 456.193 104.924 455.937 106.351 455.937C107.733 455.937 109.015 456.237 110.196 456.839C111.378 457.441 112.347 458.21 113.105 459.147L110.531 461.721C109.862 460.963 109.171 460.373 108.457 459.949C107.766 459.525 107.031 459.314 106.251 459.314C105.002 459.314 104.044 459.559 103.375 460.049C102.706 460.517 102.372 461.231 102.372 462.189C102.372 462.903 102.572 463.482 102.974 463.928C103.397 464.352 103.943 464.719 104.612 465.031C105.281 465.321 106.005 465.6 106.786 465.867C107.588 466.135 108.391 466.436 109.193 466.77C109.996 467.105 110.731 467.539 111.4 468.074C112.069 468.587 112.604 469.256 113.005 470.081C113.428 470.905 113.64 471.942 113.64 473.19C113.64 475.286 112.893 476.946 111.4 478.172C109.929 479.398 107.934 480.011 105.415 480.011ZM104.88 483.021V452.927H107.555V483.021H104.88ZM123.738 480.011C122.11 480.011 120.662 479.733 119.391 479.175C118.12 478.596 117.05 477.76 116.181 476.668L118.789 474.06C119.257 474.773 119.915 475.341 120.762 475.765C121.631 476.188 122.601 476.4 123.671 476.4C124.652 476.4 125.51 476.222 126.246 475.865C126.981 475.508 127.561 474.996 127.984 474.327C128.408 473.658 128.62 472.867 128.62 471.953C128.62 470.994 128.408 470.203 127.984 469.579C127.583 468.932 127.037 468.453 126.346 468.141C125.677 467.807 124.953 467.64 124.172 467.64C123.281 467.64 122.478 467.74 121.765 467.941C121.074 468.141 120.394 468.498 119.725 469.011L119.826 466.603C120.182 466.135 120.595 465.756 121.063 465.466C121.531 465.154 122.077 464.92 122.701 464.764C123.325 464.608 124.061 464.53 124.908 464.53C126.558 464.53 127.94 464.875 129.054 465.566C130.191 466.258 131.049 467.183 131.629 468.342C132.209 469.479 132.498 470.749 132.498 472.154C132.498 473.669 132.119 475.018 131.361 476.2C130.626 477.381 129.6 478.317 128.285 479.008C126.97 479.677 125.454 480.011 123.738 480.011ZM119.725 469.011L117.619 466.904L118.655 456.271H122.166L120.962 467.339L119.725 469.011ZM119.324 459.715L118.655 456.271H131.194V459.715H119.324ZM144.7 480.011C142.939 480.011 141.323 479.521 139.852 478.54C138.403 477.537 137.244 476.133 136.374 474.327C135.505 472.521 135.07 470.393 135.07 467.941C135.07 465.488 135.494 463.371 136.341 461.587C137.21 459.782 138.37 458.389 139.818 457.408C141.267 456.427 142.872 455.937 144.633 455.937C146.417 455.937 148.033 456.427 149.482 457.408C150.931 458.389 152.079 459.782 152.926 461.587C153.795 463.371 154.23 465.5 154.23 467.974C154.23 470.426 153.795 472.555 152.926 474.36C152.079 476.166 150.931 477.559 149.482 478.54C148.055 479.521 146.461 480.011 144.7 480.011ZM144.633 476.4C145.793 476.4 146.796 476.088 147.643 475.464C148.49 474.84 149.147 473.903 149.616 472.655C150.106 471.407 150.351 469.835 150.351 467.941C150.351 466.068 150.106 464.508 149.616 463.259C149.147 462.011 148.479 461.086 147.609 460.484C146.762 459.86 145.77 459.548 144.633 459.548C143.497 459.548 142.493 459.86 141.624 460.484C140.777 461.086 140.119 462.011 139.651 463.259C139.183 464.485 138.949 466.046 138.949 467.941C138.949 469.835 139.183 471.407 139.651 472.655C140.119 473.903 140.777 474.84 141.624 475.464C142.493 476.088 143.497 476.4 144.633 476.4ZM166.611 480.011C164.85 480.011 163.234 479.521 161.762 478.54C160.314 477.537 159.154 476.133 158.285 474.327C157.416 472.521 156.981 470.393 156.981 467.941C156.981 465.488 157.404 463.371 158.252 461.587C159.121 459.782 160.28 458.389 161.729 457.408C163.178 456.427 164.783 455.937 166.544 455.937C168.327 455.937 169.943 456.427 171.392 457.408C172.841 458.389 173.989 459.782 174.836 461.587C175.706 463.371 176.141 465.5 176.141 467.974C176.141 470.426 175.706 472.555 174.836 474.36C173.989 476.166 172.841 477.559 171.392 478.54C169.966 479.521 168.372 480.011 166.611 480.011ZM166.544 476.4C167.703 476.4 168.706 476.088 169.553 475.464C170.4 474.84 171.058 473.903 171.526 472.655C172.017 471.407 172.262 469.835 172.262 467.941C172.262 466.068 172.017 464.508 171.526 463.259C171.058 462.011 170.389 461.086 169.52 460.484C168.673 459.86 167.681 459.548 166.544 459.548C165.407 459.548 164.404 459.86 163.535 460.484C162.688 461.086 162.03 462.011 161.562 463.259C161.094 464.485 160.86 466.046 160.86 467.941C160.86 469.835 161.094 471.407 161.562 472.655C162.03 473.903 162.688 474.84 163.535 475.464C164.404 476.088 165.407 476.4 166.544 476.4ZM188.521 480.011C186.76 480.011 185.144 479.521 183.673 478.54C182.224 477.537 181.065 476.133 180.196 474.327C179.326 472.521 178.892 470.393 178.892 467.941C178.892 465.488 179.315 463.371 180.162 461.587C181.031 459.782 182.191 458.389 183.64 457.408C185.089 456.427 186.694 455.937 188.455 455.937C190.238 455.937 191.854 456.427 193.303 457.408C194.752 458.389 195.9 459.782 196.747 461.587C197.616 463.371 198.051 465.5 198.051 467.974C198.051 470.426 197.616 472.555 196.747 474.36C195.9 476.166 194.752 477.559 193.303 478.54C191.876 479.521 190.282 480.011 188.521 480.011ZM188.455 476.4C189.614 476.4 190.617 476.088 191.464 475.464C192.311 474.84 192.969 473.903 193.437 472.655C193.927 471.407 194.172 469.835 194.172 467.941C194.172 466.068 193.927 464.508 193.437 463.259C192.969 462.011 192.3 461.086 191.43 460.484C190.583 459.86 189.591 459.548 188.455 459.548C187.318 459.548 186.315 459.86 185.445 460.484C184.598 461.086 183.941 462.011 183.472 463.259C183.004 464.485 182.77 466.046 182.77 467.941C182.77 469.835 183.004 471.407 183.472 472.655C183.941 473.903 184.598 474.84 185.445 475.464C186.315 476.088 187.318 476.4 188.455 476.4Z" fill="#2D3B31"/>
<circle cx="148.035" cy="676.362" r="95.2167" transform="rotate(90 148.035 676.362)" stroke="#2D3C31" stroke-width="5.65644"/>
<path d="M88.4417 690.815C86.5735 690.815 84.9389 690.447 83.5378 689.709C82.1613 688.972 80.9076 687.89 79.7769 686.465L82.616 683.626C83.3288 684.658 84.1646 685.494 85.1233 686.133C86.0819 686.772 87.2372 687.091 88.5892 687.091C90.0149 687.091 91.1456 686.784 91.9813 686.17C92.8417 685.555 93.2718 684.683 93.2718 683.552C93.2718 682.691 93.0506 681.991 92.6081 681.45C92.1657 680.909 91.5757 680.467 90.8383 680.123C90.1255 679.754 89.3266 679.435 88.4417 679.164C87.5813 678.869 86.7087 678.55 85.8238 678.205C84.9635 677.837 84.1646 677.382 83.4272 676.841C82.7143 676.3 82.1367 675.6 81.6942 674.74C81.2518 673.879 81.0305 672.785 81.0305 671.458C81.0305 669.934 81.3992 668.644 82.1367 667.587C82.8987 666.505 83.9188 665.682 85.197 665.116C86.4752 664.551 87.9009 664.268 89.4741 664.268C90.9981 664.268 92.4115 664.6 93.7143 665.264C95.0171 665.927 96.0863 666.775 96.9221 667.808L94.083 670.647C93.3456 669.811 92.5836 669.16 91.797 668.693C91.035 668.226 90.2238 667.992 89.3635 667.992C87.9869 667.992 86.93 668.262 86.1925 668.803C85.4551 669.319 85.0864 670.106 85.0864 671.163C85.0864 671.95 85.3076 672.589 85.7501 673.08C86.2171 673.547 86.8193 673.953 87.5568 674.297C88.2942 674.617 89.0931 674.924 89.9534 675.219C90.8383 675.514 91.7232 675.846 92.6081 676.214C93.4931 676.583 94.3042 677.062 95.0417 677.652C95.7791 678.218 96.369 678.955 96.8115 679.865C97.2785 680.774 97.512 681.917 97.512 683.294C97.512 685.604 96.6886 687.436 95.0417 688.788C93.4193 690.14 91.2193 690.815 88.4417 690.815ZM87.8517 694.134V660.95H90.8014V694.134H87.8517ZM105.66 690.447V664.637H109.827V690.447H105.66ZM100.498 668.435V664.637H109.458V668.435H100.498ZM124.777 690.815C122.835 690.815 121.053 690.275 119.43 689.193C117.833 688.087 116.554 686.538 115.596 684.547C114.637 682.556 114.158 680.209 114.158 677.505C114.158 674.801 114.625 672.466 115.559 670.499C116.518 668.508 117.796 666.972 119.393 665.89C120.991 664.809 122.761 664.268 124.703 664.268C126.669 664.268 128.452 664.809 130.049 665.89C131.647 666.972 132.913 668.508 133.847 670.499C134.806 672.466 135.285 674.813 135.285 677.542C135.285 680.246 134.806 682.593 133.847 684.584C132.913 686.575 131.647 688.112 130.049 689.193C128.476 690.275 126.719 690.815 124.777 690.815ZM124.703 686.833C125.981 686.833 127.087 686.489 128.021 685.801C128.955 685.113 129.681 684.08 130.197 682.704C130.738 681.327 131.008 679.594 131.008 677.505C131.008 675.44 130.738 673.719 130.197 672.343C129.681 670.966 128.943 669.946 127.985 669.283C127.05 668.594 125.957 668.25 124.703 668.25C123.449 668.25 122.343 668.594 121.385 669.283C120.45 669.946 119.725 670.966 119.209 672.343C118.693 673.695 118.435 675.416 118.435 677.505C118.435 679.594 118.693 681.327 119.209 682.704C119.725 684.08 120.45 685.113 121.385 685.801C122.343 686.489 123.449 686.833 124.703 686.833ZM141.253 690.815C140.466 690.815 139.815 690.557 139.299 690.041C138.807 689.5 138.561 688.849 138.561 688.087C138.561 687.3 138.807 686.649 139.299 686.133C139.815 685.617 140.466 685.359 141.253 685.359C142.04 685.359 142.679 685.617 143.17 686.133C143.687 686.649 143.945 687.3 143.945 688.087C143.945 688.849 143.687 689.5 143.17 690.041C142.679 690.557 142.04 690.815 141.253 690.815ZM157.831 690.815C155.889 690.815 154.107 690.275 152.485 689.193C150.887 688.087 149.609 686.538 148.65 684.547C147.692 682.556 147.212 680.209 147.212 677.505C147.212 674.801 147.679 672.466 148.613 670.499C149.572 668.508 150.85 666.972 152.448 665.89C154.046 664.809 155.816 664.268 157.758 664.268C159.724 664.268 161.506 664.809 163.104 665.89C164.702 666.972 165.968 668.508 166.902 670.499C167.86 672.466 168.34 674.813 168.34 677.542C168.34 680.246 167.86 682.593 166.902 684.584C165.968 686.575 164.702 688.112 163.104 689.193C161.531 690.275 159.773 690.815 157.831 690.815ZM157.758 686.833C159.036 686.833 160.142 686.489 161.076 685.801C162.01 685.113 162.735 684.08 163.251 682.704C163.792 681.327 164.063 679.594 164.063 677.505C164.063 675.44 163.792 673.719 163.251 672.343C162.735 670.966 161.998 669.946 161.039 669.283C160.105 668.594 159.011 668.25 157.758 668.25C156.504 668.25 155.398 668.594 154.439 669.283C153.505 669.946 152.78 670.966 152.264 672.343C151.748 673.695 151.489 675.416 151.489 677.505C151.489 679.594 151.748 681.327 152.264 682.704C152.78 684.08 153.505 685.113 154.439 685.801C155.398 686.489 156.504 686.833 157.758 686.833ZM181.992 690.815C180.05 690.815 178.268 690.275 176.646 689.193C175.048 688.087 173.77 686.538 172.811 684.547C171.853 682.556 171.373 680.209 171.373 677.505C171.373 674.801 171.84 672.466 172.774 670.499C173.733 668.508 175.011 666.972 176.609 665.89C178.207 664.809 179.976 664.268 181.918 664.268C183.885 664.268 185.667 664.809 187.265 665.89C188.862 666.972 190.128 668.508 191.062 670.499C192.021 672.466 192.5 674.813 192.5 677.542C192.5 680.246 192.021 682.593 191.062 684.584C190.128 686.575 188.862 688.112 187.265 689.193C185.692 690.275 183.934 690.815 181.992 690.815ZM181.918 686.833C183.197 686.833 184.303 686.489 185.237 685.801C186.171 685.113 186.896 684.08 187.412 682.704C187.953 681.327 188.223 679.594 188.223 677.505C188.223 675.44 187.953 673.719 187.412 672.343C186.896 670.966 186.159 669.946 185.2 669.283C184.266 668.594 183.172 668.25 181.918 668.25C180.665 668.25 179.559 668.594 178.6 669.283C177.666 669.946 176.941 670.966 176.425 672.343C175.908 673.695 175.65 675.416 175.65 677.505C175.65 679.594 175.908 681.327 176.425 682.704C176.941 684.08 177.666 685.113 178.6 685.801C179.559 686.489 180.665 686.833 181.918 686.833ZM206.153 690.815C204.211 690.815 202.429 690.275 200.807 689.193C199.209 688.087 197.931 686.538 196.972 684.547C196.013 682.556 195.534 680.209 195.534 677.505C195.534 674.801 196.001 672.466 196.935 670.499C197.894 668.508 199.172 666.972 200.77 665.89C202.368 664.809 204.137 664.268 206.079 664.268C208.046 664.268 209.828 664.809 211.426 665.89C213.023 666.972 214.289 668.508 215.223 670.499C216.182 672.466 216.661 674.813 216.661 677.542C216.661 680.246 216.182 682.593 215.223 684.584C214.289 686.575 213.023 688.112 211.426 689.193C209.852 690.275 208.095 690.815 206.153 690.815ZM206.079 686.833C207.357 686.833 208.464 686.489 209.398 685.801C210.332 685.113 211.057 684.08 211.573 682.704C212.114 681.327 212.384 679.594 212.384 677.505C212.384 675.44 212.114 673.719 211.573 672.343C211.057 670.966 210.319 669.946 209.361 669.283C208.427 668.594 207.333 668.25 206.079 668.25C204.826 668.25 203.719 668.594 202.761 669.283C201.827 669.946 201.102 670.966 200.585 672.343C200.069 673.695 199.811 675.416 199.811 677.505C199.811 679.594 200.069 681.327 200.585 682.704C201.102 684.08 201.827 685.113 202.761 685.801C203.719 686.489 204.826 686.833 206.079 686.833Z" fill="#2D3B31"/>
<circle cx="148.035" cy="926.518" r="116.22" transform="rotate(90 148.035 926.518)" stroke="#2D3C31" stroke-width="6.90418"/>
<path d="M70.8035 942.891C68.5232 942.891 66.528 942.441 64.8179 941.541C63.1377 940.641 61.6075 939.321 60.2274 937.581L63.6927 934.116C64.5628 935.376 65.5829 936.396 66.7531 937.176C67.9232 937.956 69.3333 938.346 70.9835 938.346C72.7237 938.346 74.1038 937.971 75.1239 937.221C76.1741 936.471 76.6991 935.406 76.6991 934.026C76.6991 932.975 76.4291 932.12 75.889 931.46C75.349 930.8 74.6289 930.26 73.7288 929.84C72.8587 929.39 71.8836 929 70.8035 928.67C69.7534 928.31 68.6883 927.92 67.6081 927.5C66.558 927.05 65.5829 926.495 64.6828 925.835C63.8127 925.175 63.1077 924.319 62.5676 923.269C62.0276 922.219 61.7575 920.884 61.7575 919.264C61.7575 917.404 62.2076 915.829 63.1077 914.538C64.0378 913.218 65.2829 912.213 66.8431 911.523C68.4032 910.833 70.1434 910.488 72.0636 910.488C73.9238 910.488 75.649 910.893 77.2392 911.703C78.8293 912.513 80.1345 913.548 81.1546 914.808L77.6892 918.274C76.7891 917.254 75.859 916.459 74.8989 915.889C73.9688 915.319 72.9787 915.034 71.9286 915.034C70.2484 915.034 68.9583 915.364 68.0582 916.024C67.1581 916.654 66.7081 917.614 66.7081 918.904C66.7081 919.864 66.9781 920.644 67.5181 921.244C68.0882 921.814 68.8233 922.309 69.7234 922.729C70.6235 923.119 71.5986 923.494 72.6487 923.854C73.7288 924.214 74.8089 924.62 75.889 925.07C76.9691 925.52 77.9592 926.105 78.8593 926.825C79.7594 927.515 80.4795 928.415 81.0196 929.525C81.5896 930.635 81.8747 932.03 81.8747 933.71C81.8747 936.531 80.8696 938.766 78.8593 940.416C76.8791 942.066 74.1938 942.891 70.8035 942.891ZM70.0834 946.942V906.438H73.6838V946.942H70.0834ZM85.6094 939.381L97.2206 927.05C98.1807 926.03 98.9608 925.115 99.5608 924.304C100.161 923.494 100.596 922.729 100.866 922.009C101.136 921.289 101.271 920.554 101.271 919.804C101.271 918.394 100.806 917.299 99.8759 916.519C98.9758 915.709 97.8206 915.304 96.4105 915.304C94.9103 915.304 93.5902 915.679 92.4501 916.429C91.31 917.179 90.2898 918.349 89.3898 919.939L85.7894 916.969C87.0195 914.838 88.5347 913.233 90.3349 912.153C92.135 911.043 94.2203 910.488 96.5905 910.488C98.5407 910.488 100.251 910.878 101.721 911.658C103.191 912.438 104.331 913.533 105.141 914.943C105.952 916.324 106.357 917.929 106.357 919.759C106.357 921.079 106.192 922.264 105.861 923.314C105.561 924.334 105.036 925.37 104.286 926.42C103.536 927.44 102.501 928.64 101.181 930.02L92.2701 939.246L85.6094 939.381ZM85.6094 942.441V939.381L90.0648 937.806H106.987V942.441H85.6094ZM123.504 942.891C121.134 942.891 118.959 942.231 116.978 940.911C115.028 939.561 113.468 937.671 112.298 935.241C111.128 932.81 110.543 929.945 110.543 926.645C110.543 923.344 111.113 920.494 112.253 918.094C113.423 915.664 114.983 913.788 116.933 912.468C118.884 911.148 121.044 910.488 123.414 910.488C125.814 910.488 127.99 911.148 129.94 912.468C131.89 913.788 133.435 915.664 134.575 918.094C135.745 920.494 136.33 923.359 136.33 926.69C136.33 929.99 135.745 932.855 134.575 935.286C133.435 937.716 131.89 939.591 129.94 940.911C128.02 942.231 125.874 942.891 123.504 942.891ZM123.414 938.031C124.974 938.031 126.324 937.611 127.464 936.771C128.605 935.931 129.49 934.671 130.12 932.99C130.78 931.31 131.11 929.195 131.11 926.645C131.11 924.124 130.78 922.024 130.12 920.344C129.49 918.664 128.59 917.419 127.419 916.609C126.279 915.769 124.944 915.349 123.414 915.349C121.884 915.349 120.534 915.769 119.364 916.609C118.224 917.419 117.338 918.664 116.708 920.344C116.078 921.994 115.763 924.094 115.763 926.645C115.763 929.195 116.078 931.31 116.708 932.99C117.338 934.671 118.224 935.931 119.364 936.771C120.534 937.611 121.884 938.031 123.414 938.031ZM143.615 942.891C142.655 942.891 141.86 942.576 141.23 941.946C140.63 941.286 140.33 940.491 140.33 939.561C140.33 938.601 140.63 937.806 141.23 937.176C141.86 936.546 142.655 936.231 143.615 936.231C144.575 936.231 145.355 936.546 145.955 937.176C146.585 937.806 146.9 938.601 146.9 939.561C146.9 940.491 146.585 941.286 145.955 941.946C145.355 942.576 144.575 942.891 143.615 942.891ZM163.85 942.891C161.48 942.891 159.305 942.231 157.324 940.911C155.374 939.561 153.814 937.671 152.644 935.241C151.474 932.81 150.889 929.945 150.889 926.645C150.889 923.344 151.459 920.494 152.599 918.094C153.769 915.664 155.329 913.788 157.279 912.468C159.23 911.148 161.39 910.488 163.76 910.488C166.16 910.488 168.336 911.148 170.286 912.468C172.236 913.788 173.781 915.664 174.921 918.094C176.091 920.494 176.676 923.359 176.676 926.69C176.676 929.99 176.091 932.855 174.921 935.286C173.781 937.716 172.236 939.591 170.286 940.911C168.366 942.231 166.22 942.891 163.85 942.891ZM163.76 938.031C165.32 938.031 166.67 937.611 167.811 936.771C168.951 935.931 169.836 934.671 170.466 932.99C171.126 931.31 171.456 929.195 171.456 926.645C171.456 924.124 171.126 922.024 170.466 920.344C169.836 918.664 168.936 917.419 167.766 916.609C166.625 915.769 165.29 915.349 163.76 915.349C162.23 915.349 160.88 915.769 159.71 916.609C158.57 917.419 157.684 918.664 157.054 920.344C156.424 921.994 156.109 924.094 156.109 926.645C156.109 929.195 156.424 931.31 157.054 932.99C157.684 934.671 158.57 935.931 159.71 936.771C160.88 937.611 162.23 938.031 163.76 938.031ZM193.341 942.891C190.97 942.891 188.795 942.231 186.815 940.911C184.865 939.561 183.305 937.671 182.134 935.241C180.964 932.81 180.379 929.945 180.379 926.645C180.379 923.344 180.949 920.494 182.089 918.094C183.259 915.664 184.82 913.788 186.77 912.468C188.72 911.148 190.88 910.488 193.251 910.488C195.651 910.488 197.826 911.148 199.776 912.468C201.726 913.788 203.272 915.664 204.412 918.094C205.582 920.494 206.167 923.359 206.167 926.69C206.167 929.99 205.582 932.855 204.412 935.286C203.272 937.716 201.726 939.591 199.776 940.911C197.856 942.231 195.711 942.891 193.341 942.891ZM193.251 938.031C194.811 938.031 196.161 937.611 197.301 936.771C198.441 935.931 199.326 934.671 199.956 932.99C200.616 931.31 200.946 929.195 200.946 926.645C200.946 924.124 200.616 922.024 199.956 920.344C199.326 918.664 198.426 917.419 197.256 916.609C196.116 915.769 194.781 915.349 193.251 915.349C191.72 915.349 190.37 915.769 189.2 916.609C188.06 917.419 187.175 918.664 186.545 920.344C185.915 921.994 185.6 924.094 185.6 926.645C185.6 929.195 185.915 931.31 186.545 932.99C187.175 934.671 188.06 935.931 189.2 936.771C190.37 937.611 191.72 938.031 193.251 938.031ZM222.831 942.891C220.461 942.891 218.286 942.231 216.305 940.911C214.355 939.561 212.795 937.671 211.625 935.241C210.455 932.81 209.87 929.945 209.87 926.645C209.87 923.344 210.44 920.494 211.58 918.094C212.75 915.664 214.31 913.788 216.26 912.468C218.21 911.148 220.371 910.488 222.741 910.488C225.141 910.488 227.316 911.148 229.267 912.468C231.217 913.788 232.762 915.664 233.902 918.094C235.072 920.494 235.657 923.359 235.657 926.69C235.657 929.99 235.072 932.855 233.902 935.286C232.762 937.716 231.217 939.591 229.267 940.911C227.346 942.231 225.201 942.891 222.831 942.891ZM222.741 938.031C224.301 938.031 225.651 937.611 226.791 936.771C227.932 935.931 228.817 934.671 229.447 932.99C230.107 931.31 230.437 929.195 230.437 926.645C230.437 924.124 230.107 922.024 229.447 920.344C228.817 918.664 227.917 917.419 226.746 916.609C225.606 915.769 224.271 915.349 222.741 915.349C221.211 915.349 219.861 915.769 218.691 916.609C217.55 917.419 216.665 918.664 216.035 920.344C215.405 921.994 215.09 924.094 215.09 926.645C215.09 929.195 215.405 931.31 216.035 932.99C216.665 934.671 217.55 935.931 218.691 936.771C219.861 937.611 221.211 938.031 222.741 938.031Z" fill="#2D3B31"/>
<circle cx="148.036" cy="1223.32" r="143.292" transform="rotate(90 148.036 1223.32)" stroke="#2D3C31" stroke-width="8.51238"/>
<path d="M52.9164 1244.76C50.105 1244.76 47.6451 1244.21 45.5365 1243.1C43.465 1241.99 41.5784 1240.36 39.8768 1238.21L44.1494 1233.94C45.2221 1235.49 46.4798 1236.75 47.9225 1237.71C49.3652 1238.68 51.1038 1239.16 53.1384 1239.16C55.2839 1239.16 56.9855 1238.69 58.2433 1237.77C59.538 1236.84 60.1853 1235.53 60.1853 1233.83C60.1853 1232.53 59.8524 1231.48 59.1866 1230.67C58.5207 1229.85 57.6329 1229.19 56.5231 1228.67C55.4504 1228.11 54.2481 1227.63 52.9164 1227.23C51.6217 1226.78 50.3085 1226.3 48.9768 1225.78C47.6821 1225.23 46.4798 1224.54 45.3701 1223.73C44.2973 1222.92 43.428 1221.86 42.7622 1220.57C42.0963 1219.27 41.7634 1217.63 41.7634 1215.63C41.7634 1213.34 42.3183 1211.39 43.428 1209.8C44.5748 1208.18 46.1099 1206.94 48.0335 1206.09C49.9571 1205.23 52.1026 1204.81 54.4701 1204.81C56.7636 1204.81 58.8906 1205.31 60.8512 1206.31C62.8118 1207.31 64.4209 1208.58 65.6786 1210.14L61.4061 1214.41C60.2963 1213.15 59.1496 1212.17 57.9658 1211.47C56.8191 1210.76 55.5983 1210.41 54.3036 1210.41C52.2321 1210.41 50.6414 1210.82 49.5317 1211.63C48.4219 1212.41 47.867 1213.59 47.867 1215.19C47.867 1216.37 48.2 1217.33 48.8658 1218.07C49.5687 1218.77 50.475 1219.38 51.5847 1219.9C52.6945 1220.38 53.8967 1220.85 55.1914 1221.29C56.5231 1221.73 57.8548 1222.23 59.1866 1222.79C60.5183 1223.34 61.739 1224.06 62.8487 1224.95C63.9585 1225.8 64.8463 1226.91 65.5122 1228.28C66.215 1229.65 66.5664 1231.37 66.5664 1233.44C66.5664 1236.92 65.3272 1239.67 62.8487 1241.71C60.4073 1243.74 57.0965 1244.76 52.9164 1244.76ZM52.0286 1249.75V1199.82H56.4676V1249.75H52.0286ZM83.2674 1244.76C80.678 1244.76 78.329 1244.3 76.2204 1243.37C74.1489 1242.41 72.3918 1241.02 70.9491 1239.21L75.2771 1234.88C76.054 1236.07 77.1452 1237.01 78.5509 1237.71C79.9566 1238.42 81.4918 1238.77 83.1564 1238.77C84.7471 1238.77 86.1158 1238.47 87.2625 1237.88C88.4093 1237.29 89.2971 1236.46 89.9259 1235.38C90.5918 1234.31 90.9247 1233.07 90.9247 1231.67C90.9247 1230.19 90.5918 1228.93 89.9259 1227.89C89.2971 1226.86 88.3723 1226.06 87.1515 1225.51C85.9678 1224.91 84.5251 1224.62 82.8235 1224.62C82.1576 1224.62 81.4733 1224.67 80.7704 1224.78C80.0676 1224.86 79.4387 1224.99 78.8839 1225.17L81.7137 1221.51C82.4906 1221.22 83.3044 1220.97 84.1552 1220.79C85.043 1220.57 85.8938 1220.46 86.7076 1220.46C88.7052 1220.46 90.4993 1220.94 92.09 1221.9C93.7176 1222.86 94.9938 1224.21 95.9186 1225.95C96.8804 1227.65 97.3613 1229.67 97.3613 1232C97.3613 1234.51 96.7694 1236.73 95.5857 1238.66C94.4019 1240.58 92.7558 1242.08 90.6473 1243.15C88.5387 1244.22 86.0788 1244.76 83.2674 1244.76ZM78.8839 1225.17V1221.4L89.2601 1209.3L96.9174 1209.14L86.0973 1221.57L78.8839 1225.17ZM72.8912 1211.08V1205.36H96.9174V1209.14L91.4241 1211.08H72.8912ZM117.838 1244.76C114.916 1244.76 112.234 1243.95 109.793 1242.32C107.388 1240.65 105.465 1238.32 104.022 1235.33C102.579 1232.33 101.858 1228.8 101.858 1224.73C101.858 1220.66 102.561 1217.15 103.967 1214.19C105.409 1211.19 107.333 1208.88 109.737 1207.25C112.142 1205.62 114.805 1204.81 117.727 1204.81C120.687 1204.81 123.369 1205.62 125.773 1207.25C128.178 1208.88 130.083 1211.19 131.488 1214.19C132.931 1217.15 133.652 1220.68 133.652 1224.78C133.652 1228.85 132.931 1232.39 131.488 1235.38C130.083 1238.38 128.178 1240.69 125.773 1242.32C123.406 1243.95 120.761 1244.76 117.838 1244.76ZM117.727 1238.77C119.651 1238.77 121.316 1238.25 122.721 1237.21C124.127 1236.18 125.218 1234.62 125.995 1232.55C126.809 1230.48 127.216 1227.87 127.216 1224.73C127.216 1221.62 126.809 1219.03 125.995 1216.96C125.218 1214.89 124.109 1213.35 122.666 1212.36C121.26 1211.32 119.614 1210.8 117.727 1210.8C115.841 1210.8 114.176 1211.32 112.734 1212.36C111.328 1213.35 110.237 1214.89 109.46 1216.96C108.683 1219 108.295 1221.59 108.295 1224.73C108.295 1227.87 108.683 1230.48 109.46 1232.55C110.237 1234.62 111.328 1236.18 112.734 1237.21C114.176 1238.25 115.841 1238.77 117.727 1238.77ZM142.634 1244.76C141.45 1244.76 140.47 1244.37 139.693 1243.6C138.953 1242.78 138.583 1241.8 138.583 1240.65C138.583 1239.47 138.953 1238.49 139.693 1237.71C140.47 1236.94 141.45 1236.55 142.634 1236.55C143.817 1236.55 144.779 1236.94 145.519 1237.71C146.296 1238.49 146.684 1239.47 146.684 1240.65C146.684 1241.8 146.296 1242.78 145.519 1243.6C144.779 1244.37 143.817 1244.76 142.634 1244.76ZM167.582 1244.76C164.66 1244.76 161.978 1243.95 159.537 1242.32C157.132 1240.65 155.209 1238.32 153.766 1235.33C152.323 1232.33 151.602 1228.8 151.602 1224.73C151.602 1220.66 152.305 1217.15 153.71 1214.19C155.153 1211.19 157.077 1208.88 159.481 1207.25C161.886 1205.62 164.549 1204.81 167.471 1204.81C170.431 1204.81 173.113 1205.62 175.517 1207.25C177.922 1208.88 179.827 1211.19 181.232 1214.19C182.675 1217.15 183.396 1220.68 183.396 1224.78C183.396 1228.85 182.675 1232.39 181.232 1235.38C179.827 1238.38 177.922 1240.69 175.517 1242.32C173.15 1243.95 170.505 1244.76 167.582 1244.76ZM167.471 1238.77C169.395 1238.77 171.06 1238.25 172.465 1237.21C173.871 1236.18 174.962 1234.62 175.739 1232.55C176.553 1230.48 176.96 1227.87 176.96 1224.73C176.96 1221.62 176.553 1219.03 175.739 1216.96C174.962 1214.89 173.853 1213.35 172.41 1212.36C171.004 1211.32 169.358 1210.8 167.471 1210.8C165.585 1210.8 163.92 1211.32 162.478 1212.36C161.072 1213.35 159.981 1214.89 159.204 1216.96C158.427 1219 158.039 1221.59 158.039 1224.73C158.039 1227.87 158.427 1230.48 159.204 1232.55C159.981 1234.62 161.072 1236.18 162.478 1237.21C163.92 1238.25 165.585 1238.77 167.471 1238.77ZM203.942 1244.76C201.02 1244.76 198.338 1243.95 195.896 1242.32C193.492 1240.65 191.568 1238.32 190.126 1235.33C188.683 1232.33 187.962 1228.8 187.962 1224.73C187.962 1220.66 188.664 1217.15 190.07 1214.19C191.513 1211.19 193.436 1208.88 195.841 1207.25C198.245 1205.62 200.909 1204.81 203.831 1204.81C206.79 1204.81 209.472 1205.62 211.877 1207.25C214.281 1208.88 216.186 1211.19 217.592 1214.19C219.035 1217.15 219.756 1220.68 219.756 1224.78C219.756 1228.85 219.035 1232.39 217.592 1235.38C216.186 1238.38 214.281 1240.69 211.877 1242.32C209.509 1243.95 206.864 1244.76 203.942 1244.76ZM203.831 1238.77C205.755 1238.77 207.419 1238.25 208.825 1237.21C210.231 1236.18 211.322 1234.62 212.099 1232.55C212.913 1230.48 213.32 1227.87 213.32 1224.73C213.32 1221.62 212.913 1219.03 212.099 1216.96C211.322 1214.89 210.212 1213.35 208.77 1212.36C207.364 1211.32 205.718 1210.8 203.831 1210.8C201.945 1210.8 200.28 1211.32 198.837 1212.36C197.432 1213.35 196.34 1214.89 195.563 1216.96C194.787 1219 194.398 1221.59 194.398 1224.73C194.398 1227.87 194.787 1230.48 195.563 1232.55C196.34 1234.62 197.432 1236.18 198.837 1237.21C200.28 1238.25 201.945 1238.77 203.831 1238.77ZM240.302 1244.76C237.379 1244.76 234.698 1243.95 232.256 1242.32C229.852 1240.65 227.928 1238.32 226.485 1235.33C225.043 1232.33 224.321 1228.8 224.321 1224.73C224.321 1220.66 225.024 1217.15 226.43 1214.19C227.873 1211.19 229.796 1208.88 232.201 1207.25C234.605 1205.62 237.268 1204.81 240.191 1204.81C243.15 1204.81 245.832 1205.62 248.237 1207.25C250.641 1208.88 252.546 1211.19 253.952 1214.19C255.394 1217.15 256.116 1220.68 256.116 1224.78C256.116 1228.85 255.394 1232.39 253.952 1235.38C252.546 1238.38 250.641 1240.69 248.237 1242.32C245.869 1243.95 243.224 1244.76 240.302 1244.76ZM240.191 1238.77C242.114 1238.77 243.779 1238.25 245.185 1237.21C246.59 1236.18 247.682 1234.62 248.458 1232.55C249.272 1230.48 249.679 1227.87 249.679 1224.73C249.679 1221.62 249.272 1219.03 248.458 1216.96C247.682 1214.89 246.572 1213.35 245.129 1212.36C243.724 1211.32 242.077 1210.8 240.191 1210.8C238.304 1210.8 236.64 1211.32 235.197 1212.36C233.791 1213.35 232.7 1214.89 231.923 1216.96C231.146 1219 230.758 1221.59 230.758 1224.73C230.758 1227.87 231.146 1230.48 231.923 1232.55C232.7 1234.62 233.791 1236.18 235.197 1237.21C236.64 1238.25 238.304 1238.77 240.191 1238.77Z" fill="#2D3B31"/>
<path d="M148.571 51V105.5" stroke="#32BB30" stroke-width="3"/>
<path d="M146.071 185.5V230.5" stroke="#32BB30" stroke-width="3"/>
<path d="M147.071 353.5V394" stroke="#2D3B31" stroke-width="3"/>
<path d="M148.571 542.5V582.5" stroke="#2D3B31" stroke-width="3"/>
<path d="M149.571 771.5V810" stroke="#2D3B31" stroke-width="3"/>
<path d="M147.571 1041.5V1081" stroke="#2D3B31" stroke-width="3"/>
</svg>
