<svg width="1371" height="296" viewBox="0 0 1371 296" fill="none" xmlns="http://www.w3.org/2000/svg">
<circle cx="27.1731" cy="148.036" r="27.1731" fill="#32BB30"/>
<circle cx="143.729" cy="148.036" r="44.3827" fill="#32BB30"/>
<path d="M122.058 156.77C120.911 156.77 119.907 156.543 119.047 156.091C118.201 155.638 117.431 154.973 116.737 154.098L118.48 152.354C118.918 152.988 119.431 153.502 120.02 153.894C120.609 154.287 121.319 154.483 122.149 154.483C123.024 154.483 123.719 154.294 124.232 153.917C124.76 153.539 125.025 153.003 125.025 152.309C125.025 151.781 124.889 151.35 124.617 151.018C124.345 150.686 123.983 150.414 123.53 150.203C123.092 149.977 122.602 149.78 122.058 149.614C121.53 149.433 120.994 149.237 120.45 149.026C119.922 148.799 119.431 148.52 118.979 148.188C118.541 147.856 118.186 147.425 117.914 146.897C117.643 146.369 117.507 145.697 117.507 144.882C117.507 143.946 117.733 143.153 118.186 142.504C118.654 141.84 119.281 141.334 120.066 140.987C120.851 140.64 121.726 140.466 122.692 140.466C123.628 140.466 124.496 140.67 125.296 141.077C126.096 141.485 126.753 142.006 127.266 142.64L125.523 144.384C125.07 143.87 124.602 143.47 124.119 143.183C123.651 142.897 123.153 142.753 122.624 142.753C121.779 142.753 121.13 142.919 120.677 143.251C120.224 143.568 119.998 144.051 119.998 144.701C119.998 145.184 120.133 145.576 120.405 145.878C120.692 146.165 121.062 146.414 121.515 146.625C121.968 146.822 122.458 147.01 122.987 147.191C123.53 147.373 124.074 147.576 124.617 147.803C125.16 148.029 125.659 148.324 126.112 148.686C126.564 149.033 126.927 149.486 127.198 150.045C127.485 150.603 127.629 151.305 127.629 152.15C127.629 153.57 127.123 154.694 126.112 155.524C125.115 156.355 123.764 156.77 122.058 156.77ZM121.696 158.808V138.428H123.507V158.808H121.696ZM134.467 156.77C133.365 156.77 132.384 156.581 131.523 156.204C130.663 155.811 129.938 155.245 129.349 154.505L131.116 152.739C131.433 153.222 131.878 153.607 132.452 153.894C133.04 154.181 133.697 154.324 134.422 154.324C135.086 154.324 135.667 154.204 136.165 153.962C136.663 153.72 137.056 153.373 137.343 152.92C137.63 152.467 137.773 151.932 137.773 151.313C137.773 150.664 137.63 150.128 137.343 149.705C137.071 149.267 136.701 148.943 136.233 148.731C135.78 148.505 135.29 148.392 134.761 148.392C134.157 148.392 133.614 148.459 133.131 148.595C132.663 148.731 132.202 148.973 131.75 149.32L131.818 147.69C132.059 147.373 132.338 147.116 132.655 146.92C132.972 146.708 133.342 146.55 133.765 146.444C134.188 146.338 134.686 146.286 135.259 146.286C136.377 146.286 137.313 146.52 138.067 146.988C138.837 147.456 139.418 148.082 139.811 148.867C140.203 149.637 140.4 150.497 140.4 151.449C140.4 152.475 140.143 153.388 139.63 154.188C139.132 154.989 138.437 155.623 137.547 156.091C136.656 156.543 135.629 156.77 134.467 156.77ZM131.75 149.32L130.323 147.893L131.025 140.692H133.403L132.587 148.188L131.75 149.32ZM131.478 143.025L131.025 140.692H139.517V143.025H131.478ZM148.663 156.77C147.47 156.77 146.376 156.438 145.38 155.774C144.398 155.094 143.613 154.143 143.025 152.92C142.436 151.698 142.142 150.256 142.142 148.595C142.142 146.935 142.428 145.501 143.002 144.293C143.591 143.07 144.376 142.127 145.357 141.462C146.338 140.798 147.425 140.466 148.618 140.466C149.825 140.466 150.92 140.798 151.901 141.462C152.882 142.127 153.66 143.07 154.234 144.293C154.822 145.501 155.117 146.942 155.117 148.618C155.117 150.279 154.822 151.72 154.234 152.943C153.66 154.166 152.882 155.109 151.901 155.774C150.935 156.438 149.856 156.77 148.663 156.77ZM148.618 154.324C149.403 154.324 150.082 154.113 150.656 153.69C151.229 153.268 151.675 152.634 151.992 151.788C152.324 150.943 152.49 149.879 152.49 148.595C152.49 147.327 152.324 146.271 151.992 145.425C151.675 144.58 151.222 143.953 150.633 143.546C150.059 143.123 149.388 142.912 148.618 142.912C147.848 142.912 147.169 143.123 146.58 143.546C146.006 143.953 145.561 144.58 145.244 145.425C144.927 146.255 144.768 147.312 144.768 148.595C144.768 149.879 144.927 150.943 145.244 151.788C145.561 152.634 146.006 153.268 146.58 153.69C147.169 154.113 147.848 154.324 148.618 154.324ZM163.501 156.77C162.309 156.77 161.214 156.438 160.218 155.774C159.237 155.094 158.452 154.143 157.863 152.92C157.274 151.698 156.98 150.256 156.98 148.595C156.98 146.935 157.267 145.501 157.84 144.293C158.429 143.07 159.214 142.127 160.195 141.462C161.176 140.798 162.263 140.466 163.456 140.466C164.664 140.466 165.758 140.798 166.739 141.462C167.721 142.127 168.498 143.07 169.072 144.293C169.66 145.501 169.955 146.942 169.955 148.618C169.955 150.279 169.66 151.72 169.072 152.943C168.498 154.166 167.721 155.109 166.739 155.774C165.773 156.438 164.694 156.77 163.501 156.77ZM163.456 154.324C164.241 154.324 164.92 154.113 165.494 153.69C166.068 153.268 166.513 152.634 166.83 151.788C167.162 150.943 167.328 149.879 167.328 148.595C167.328 147.327 167.162 146.271 166.83 145.425C166.513 144.58 166.06 143.953 165.471 143.546C164.898 143.123 164.226 142.912 163.456 142.912C162.686 142.912 162.007 143.123 161.418 143.546C160.844 143.953 160.399 144.58 160.082 145.425C159.765 146.255 159.606 147.312 159.606 148.595C159.606 149.879 159.765 150.943 160.082 151.788C160.399 152.634 160.844 153.268 161.418 153.69C162.007 154.113 162.686 154.324 163.456 154.324Z" fill="white"/>
<circle cx="291.986" cy="148.036" r="60.6773" stroke="#2D3C31" stroke-width="3.60459"/>
<path d="M259.055 159.253C257.661 159.253 256.441 158.978 255.396 158.428C254.369 157.878 253.433 157.071 252.59 156.007L254.708 153.889C255.24 154.659 255.863 155.283 256.579 155.759C257.294 156.236 258.156 156.475 259.165 156.475C260.229 156.475 261.072 156.245 261.696 155.787C262.338 155.328 262.659 154.677 262.659 153.834C262.659 153.192 262.494 152.669 262.164 152.265C261.834 151.862 261.393 151.532 260.843 151.275C260.311 151 259.715 150.761 259.055 150.56C258.413 150.34 257.762 150.101 257.102 149.844C256.46 149.569 255.863 149.23 255.313 148.826C254.781 148.423 254.35 147.9 254.02 147.258C253.69 146.616 253.525 145.8 253.525 144.81C253.525 143.673 253.8 142.71 254.35 141.921C254.919 141.114 255.68 140.5 256.634 140.078C257.588 139.656 258.651 139.445 259.825 139.445C260.962 139.445 262.017 139.693 262.989 140.188C263.961 140.683 264.759 141.316 265.383 142.086L263.264 144.204C262.714 143.581 262.145 143.095 261.558 142.746C260.99 142.398 260.385 142.224 259.743 142.224C258.716 142.224 257.927 142.425 257.377 142.829C256.826 143.214 256.551 143.801 256.551 144.59C256.551 145.177 256.716 145.653 257.046 146.02C257.395 146.369 257.844 146.671 258.395 146.928C258.945 147.167 259.541 147.396 260.183 147.616C260.843 147.836 261.503 148.084 262.164 148.359C262.824 148.634 263.429 148.992 263.979 149.432C264.53 149.854 264.97 150.404 265.3 151.082C265.648 151.761 265.823 152.614 265.823 153.641C265.823 155.365 265.208 156.731 263.979 157.74C262.769 158.749 261.127 159.253 259.055 159.253ZM258.615 161.729V136.969H260.816V161.729H258.615ZM271.902 158.978V139.72H275.011V158.978H271.902ZM268.051 142.554V139.72H274.736V142.554H268.051ZM286.166 159.253C284.717 159.253 283.388 158.85 282.177 158.043C280.985 157.218 280.031 156.062 279.316 154.576C278.601 153.091 278.243 151.339 278.243 149.322C278.243 147.304 278.591 145.562 279.288 144.094C280.004 142.609 280.957 141.462 282.15 140.655C283.342 139.848 284.662 139.445 286.111 139.445C287.579 139.445 288.908 139.848 290.1 140.655C291.293 141.462 292.237 142.609 292.934 144.094C293.65 145.562 294.007 147.313 294.007 149.349C294.007 151.367 293.65 153.118 292.934 154.604C292.237 156.09 291.293 157.236 290.1 158.043C288.927 158.85 287.615 159.253 286.166 159.253ZM286.111 156.282C287.065 156.282 287.89 156.025 288.587 155.512C289.284 154.998 289.825 154.228 290.211 153.201C290.614 152.174 290.816 150.881 290.816 149.322C290.816 147.781 290.614 146.497 290.211 145.47C289.825 144.443 289.275 143.682 288.56 143.187C287.863 142.673 287.047 142.416 286.111 142.416C285.176 142.416 284.351 142.673 283.635 143.187C282.938 143.682 282.397 144.443 282.012 145.47C281.627 146.479 281.434 147.763 281.434 149.322C281.434 150.881 281.627 152.174 282.012 153.201C282.397 154.228 282.938 154.998 283.635 155.512C284.351 156.025 285.176 156.282 286.111 156.282ZM304.194 159.253C302.745 159.253 301.415 158.85 300.205 158.043C299.013 157.218 298.059 156.062 297.344 154.576C296.628 153.091 296.271 151.339 296.271 149.322C296.271 147.304 296.619 145.562 297.316 144.094C298.031 142.609 298.985 141.462 300.177 140.655C301.369 139.848 302.69 139.445 304.139 139.445C305.606 139.445 306.936 139.848 308.128 140.655C309.32 141.462 310.265 142.609 310.962 144.094C311.677 145.562 312.035 147.313 312.035 149.349C312.035 151.367 311.677 153.118 310.962 154.604C310.265 156.09 309.32 157.236 308.128 158.043C306.954 158.85 305.643 159.253 304.194 159.253ZM304.139 156.282C305.093 156.282 305.918 156.025 306.615 155.512C307.312 154.998 307.853 154.228 308.238 153.201C308.642 152.174 308.843 150.881 308.843 149.322C308.843 147.781 308.642 146.497 308.238 145.47C307.853 144.443 307.303 143.682 306.588 143.187C305.891 142.673 305.074 142.416 304.139 142.416C303.204 142.416 302.378 142.673 301.663 143.187C300.966 143.682 300.425 144.443 300.04 145.47C299.655 146.479 299.462 147.763 299.462 149.322C299.462 150.881 299.655 152.174 300.04 153.201C300.425 154.228 300.966 154.998 301.663 155.512C302.378 156.025 303.204 156.282 304.139 156.282ZM322.222 159.253C320.773 159.253 319.443 158.85 318.232 158.043C317.04 157.218 316.087 156.062 315.371 154.576C314.656 153.091 314.298 151.339 314.298 149.322C314.298 147.304 314.647 145.562 315.344 144.094C316.059 142.609 317.013 141.462 318.205 140.655C319.397 139.848 320.718 139.445 322.167 139.445C323.634 139.445 324.964 139.848 326.156 140.655C327.348 141.462 328.293 142.609 328.99 144.094C329.705 145.562 330.063 147.313 330.063 149.349C330.063 151.367 329.705 153.118 328.99 154.604C328.293 156.09 327.348 157.236 326.156 158.043C324.982 158.85 323.671 159.253 322.222 159.253ZM322.167 156.282C323.12 156.282 323.946 156.025 324.643 155.512C325.34 154.998 325.881 154.228 326.266 153.201C326.669 152.174 326.871 150.881 326.871 149.322C326.871 147.781 326.669 146.497 326.266 145.47C325.881 144.443 325.33 143.682 324.615 143.187C323.918 142.673 323.102 142.416 322.167 142.416C321.231 142.416 320.406 142.673 319.691 143.187C318.994 143.682 318.453 144.443 318.067 145.47C317.682 146.479 317.49 147.763 317.49 149.322C317.49 150.881 317.682 152.174 318.067 153.201C318.453 154.228 318.994 154.998 319.691 155.512C320.406 156.025 321.231 156.282 322.167 156.282Z" fill="#2D3B31"/>
<circle cx="467.417" cy="148.036" r="73.7463" stroke="#2D3C31" stroke-width="4.38097"/>
<path d="M425.14 160.454C423.445 160.454 421.963 160.119 420.692 159.45C419.444 158.782 418.307 157.801 417.282 156.508L419.856 153.933C420.503 154.869 421.261 155.627 422.13 156.207C423 156.787 424.047 157.076 425.273 157.076C426.566 157.076 427.592 156.798 428.349 156.24C429.13 155.683 429.52 154.892 429.52 153.866C429.52 153.086 429.319 152.451 428.918 151.96C428.517 151.47 427.982 151.069 427.313 150.757C426.666 150.422 425.942 150.133 425.14 149.887C424.359 149.62 423.568 149.33 422.765 149.018C421.985 148.684 421.261 148.271 420.592 147.781C419.946 147.29 419.422 146.655 419.02 145.875C418.619 145.095 418.419 144.103 418.419 142.899C418.419 141.517 418.753 140.347 419.422 139.388C420.113 138.407 421.038 137.66 422.197 137.148C423.356 136.635 424.649 136.379 426.076 136.379C427.458 136.379 428.74 136.68 429.921 137.281C431.102 137.883 432.072 138.652 432.83 139.589L430.255 142.163C429.587 141.405 428.896 140.815 428.182 140.391C427.491 139.968 426.756 139.756 425.975 139.756C424.727 139.756 423.769 140.001 423.1 140.491C422.431 140.96 422.097 141.673 422.097 142.631C422.097 143.345 422.297 143.924 422.699 144.37C423.122 144.794 423.668 145.162 424.337 145.474C425.006 145.763 425.73 146.042 426.51 146.31C427.313 146.577 428.115 146.878 428.918 147.212C429.72 147.547 430.456 147.981 431.125 148.516C431.794 149.029 432.329 149.698 432.73 150.523C433.153 151.347 433.365 152.384 433.365 153.632C433.365 155.728 432.618 157.388 431.125 158.614C429.654 159.84 427.658 160.454 425.14 160.454ZM424.605 163.463V133.369H427.279V163.463H424.605ZM443.463 160.454C441.835 160.454 440.386 160.175 439.116 159.618C437.845 159.038 436.775 158.202 435.906 157.11L438.514 154.502C438.982 155.215 439.64 155.783 440.487 156.207C441.356 156.631 442.326 156.842 443.396 156.842C444.377 156.842 445.235 156.664 445.97 156.307C446.706 155.951 447.286 155.438 447.709 154.769C448.133 154.1 448.344 153.309 448.344 152.395C448.344 151.437 448.133 150.645 447.709 150.021C447.308 149.375 446.762 148.895 446.071 148.583C445.402 148.249 444.678 148.082 443.897 148.082C443.006 148.082 442.203 148.182 441.49 148.383C440.799 148.583 440.119 148.94 439.45 149.453L439.55 147.045C439.907 146.577 440.32 146.198 440.788 145.908C441.256 145.596 441.802 145.362 442.426 145.206C443.05 145.05 443.786 144.972 444.633 144.972C446.282 144.972 447.665 145.318 448.779 146.009C449.916 146.7 450.774 147.625 451.354 148.784C451.933 149.921 452.223 151.191 452.223 152.596C452.223 154.112 451.844 155.46 451.086 156.642C450.351 157.823 449.325 158.759 448.01 159.45C446.695 160.119 445.179 160.454 443.463 160.454ZM439.45 149.453L437.344 147.346L438.38 136.713H441.891L440.687 147.781L439.45 149.453ZM439.049 140.157L438.38 136.713H450.919V140.157H439.049ZM464.425 160.454C462.664 160.454 461.048 159.963 459.577 158.982C458.128 157.979 456.969 156.575 456.099 154.769C455.23 152.964 454.795 150.835 454.795 148.383C454.795 145.931 455.219 143.813 456.066 142.03C456.935 140.224 458.094 138.831 459.543 137.85C460.992 136.869 462.597 136.379 464.358 136.379C466.142 136.379 467.758 136.869 469.207 137.85C470.656 138.831 471.804 140.224 472.651 142.03C473.52 143.813 473.955 145.942 473.955 148.416C473.955 150.868 473.52 152.997 472.651 154.803C471.804 156.608 470.656 158.001 469.207 158.982C467.78 159.963 466.186 160.454 464.425 160.454ZM464.358 156.842C465.517 156.842 466.521 156.53 467.368 155.906C468.215 155.282 468.872 154.346 469.34 153.097C469.831 151.849 470.076 150.277 470.076 148.383C470.076 146.51 469.831 144.95 469.34 143.701C468.872 142.453 468.204 141.528 467.334 140.926C466.487 140.302 465.495 139.99 464.358 139.99C463.221 139.99 462.218 140.302 461.349 140.926C460.502 141.528 459.844 142.453 459.376 143.701C458.908 144.927 458.674 146.488 458.674 148.383C458.674 150.277 458.908 151.849 459.376 153.097C459.844 154.346 460.502 155.282 461.349 155.906C462.218 156.53 463.221 156.842 464.358 156.842ZM486.336 160.454C484.575 160.454 482.959 159.963 481.487 158.982C480.038 157.979 478.879 156.575 478.01 154.769C477.14 152.964 476.706 150.835 476.706 148.383C476.706 145.931 477.129 143.813 477.976 142.03C478.846 140.224 480.005 138.831 481.454 137.85C482.903 136.869 484.508 136.379 486.269 136.379C488.052 136.379 489.668 136.869 491.117 137.85C492.566 138.831 493.714 140.224 494.561 142.03C495.431 143.813 495.865 145.942 495.865 148.416C495.865 150.868 495.431 152.997 494.561 154.803C493.714 156.608 492.566 158.001 491.117 158.982C489.691 159.963 488.097 160.454 486.336 160.454ZM486.269 156.842C487.428 156.842 488.431 156.53 489.278 155.906C490.125 155.282 490.783 154.346 491.251 153.097C491.741 151.849 491.987 150.277 491.987 148.383C491.987 146.51 491.741 144.95 491.251 143.701C490.783 142.453 490.114 141.528 489.245 140.926C488.398 140.302 487.406 139.99 486.269 139.99C485.132 139.99 484.129 140.302 483.26 140.926C482.412 141.528 481.755 142.453 481.287 143.701C480.819 144.927 480.585 146.488 480.585 148.383C480.585 150.277 480.819 151.849 481.287 153.097C481.755 154.346 482.412 155.282 483.26 155.906C484.129 156.53 485.132 156.842 486.269 156.842ZM508.246 160.454C506.485 160.454 504.869 159.963 503.398 158.982C501.949 157.979 500.79 156.575 499.92 154.769C499.051 152.964 498.616 150.835 498.616 148.383C498.616 145.931 499.04 143.813 499.887 142.03C500.756 140.224 501.916 138.831 503.364 137.85C504.813 136.869 506.418 136.379 508.179 136.379C509.963 136.379 511.579 136.869 513.028 137.85C514.477 138.831 515.625 140.224 516.472 142.03C517.341 143.813 517.776 145.942 517.776 148.416C517.776 150.868 517.341 152.997 516.472 154.803C515.625 156.608 514.477 158.001 513.028 158.982C511.601 159.963 510.007 160.454 508.246 160.454ZM508.179 156.842C509.339 156.842 510.342 156.53 511.189 155.906C512.036 155.282 512.693 154.346 513.162 153.097C513.652 151.849 513.897 150.277 513.897 148.383C513.897 146.51 513.652 144.95 513.162 143.701C512.693 142.453 512.025 141.528 511.155 140.926C510.308 140.302 509.316 139.99 508.179 139.99C507.043 139.99 506.039 140.302 505.17 140.926C504.323 141.528 503.665 142.453 503.197 143.701C502.729 144.927 502.495 146.488 502.495 148.383C502.495 150.277 502.729 151.849 503.197 153.097C503.665 154.346 504.323 155.282 505.17 155.906C506.039 156.53 507.043 156.842 508.179 156.842Z" fill="#2D3B31"/>
<circle cx="676.362" cy="148.036" r="95.2167" stroke="#2D3C31" stroke-width="5.65644"/>
<path d="M616.381 161.933C614.513 161.933 612.879 161.564 611.477 160.827C610.101 160.089 608.847 159.008 607.717 157.582L610.556 154.743C611.269 155.775 612.104 156.611 613.063 157.25C614.022 157.889 615.177 158.209 616.529 158.209C617.955 158.209 619.085 157.901 619.921 157.287C620.781 156.672 621.212 155.8 621.212 154.669C621.212 153.809 620.99 153.108 620.548 152.567C620.105 152.027 619.515 151.584 618.778 151.24C618.065 150.871 617.266 150.552 616.381 150.281C615.521 149.986 614.648 149.667 613.764 149.323C612.903 148.954 612.104 148.499 611.367 147.958C610.654 147.418 610.076 146.717 609.634 145.857C609.191 144.996 608.97 143.903 608.97 142.575C608.97 141.051 609.339 139.761 610.076 138.704C610.838 137.622 611.858 136.799 613.137 136.233C614.415 135.668 615.841 135.385 617.414 135.385C618.938 135.385 620.351 135.717 621.654 136.381C622.957 137.044 624.026 137.893 624.862 138.925L622.023 141.764C621.285 140.928 620.523 140.277 619.737 139.81C618.975 139.343 618.163 139.109 617.303 139.109C615.927 139.109 614.87 139.38 614.132 139.92C613.395 140.437 613.026 141.223 613.026 142.28C613.026 143.067 613.247 143.706 613.69 144.198C614.157 144.665 614.759 145.07 615.496 145.414C616.234 145.734 617.033 146.041 617.893 146.336C618.778 146.631 619.663 146.963 620.548 147.332C621.433 147.7 622.244 148.18 622.981 148.77C623.719 149.335 624.309 150.072 624.751 150.982C625.218 151.891 625.452 153.034 625.452 154.411C625.452 156.722 624.628 158.553 622.981 159.905C621.359 161.257 619.159 161.933 616.381 161.933ZM615.791 165.251V132.067H618.741V165.251H615.791ZM633.6 161.564V135.754H637.766V161.564H633.6ZM628.438 139.552V135.754H637.397V139.552H628.438ZM652.716 161.933C650.774 161.933 648.992 161.392 647.37 160.31C645.772 159.204 644.494 157.656 643.535 155.665C642.577 153.673 642.097 151.326 642.097 148.622C642.097 145.918 642.564 143.583 643.499 141.617C644.457 139.625 645.735 138.089 647.333 137.008C648.931 135.926 650.701 135.385 652.643 135.385C654.609 135.385 656.391 135.926 657.989 137.008C659.587 138.089 660.853 139.625 661.787 141.617C662.745 143.583 663.225 145.931 663.225 148.659C663.225 151.363 662.745 153.71 661.787 155.701C660.853 157.692 659.587 159.229 657.989 160.31C656.416 161.392 654.658 161.933 652.716 161.933ZM652.643 157.951C653.921 157.951 655.027 157.606 655.961 156.918C656.895 156.23 657.62 155.198 658.136 153.821C658.677 152.444 658.948 150.711 658.948 148.622C658.948 146.557 658.677 144.837 658.136 143.46C657.62 142.084 656.883 141.063 655.924 140.4C654.99 139.712 653.896 139.367 652.643 139.367C651.389 139.367 650.283 139.712 649.324 140.4C648.39 141.063 647.665 142.084 647.149 143.46C646.633 144.812 646.375 146.533 646.375 148.622C646.375 150.711 646.633 152.444 647.149 153.821C647.665 155.198 648.39 156.23 649.324 156.918C650.283 157.606 651.389 157.951 652.643 157.951ZM669.193 161.933C668.406 161.933 667.755 161.675 667.239 161.158C666.747 160.618 666.501 159.966 666.501 159.204C666.501 158.418 666.747 157.766 667.239 157.25C667.755 156.734 668.406 156.476 669.193 156.476C669.979 156.476 670.618 156.734 671.11 157.25C671.626 157.766 671.884 158.418 671.884 159.204C671.884 159.966 671.626 160.618 671.11 161.158C670.618 161.675 669.979 161.933 669.193 161.933ZM685.771 161.933C683.829 161.933 682.047 161.392 680.425 160.31C678.827 159.204 677.549 157.656 676.59 155.665C675.631 153.673 675.152 151.326 675.152 148.622C675.152 145.918 675.619 143.583 676.553 141.617C677.512 139.625 678.79 138.089 680.388 137.008C681.986 135.926 683.755 135.385 685.697 135.385C687.664 135.385 689.446 135.926 691.044 137.008C692.641 138.089 693.907 139.625 694.841 141.617C695.8 143.583 696.279 145.931 696.279 148.659C696.279 151.363 695.8 153.71 694.841 155.701C693.907 157.692 692.641 159.229 691.044 160.31C689.47 161.392 687.713 161.933 685.771 161.933ZM685.697 157.951C686.975 157.951 688.082 157.606 689.016 156.918C689.95 156.23 690.675 155.198 691.191 153.821C691.732 152.444 692.002 150.711 692.002 148.622C692.002 146.557 691.732 144.837 691.191 143.46C690.675 142.084 689.937 141.063 688.979 140.4C688.045 139.712 686.951 139.367 685.697 139.367C684.444 139.367 683.337 139.712 682.379 140.4C681.445 141.063 680.72 142.084 680.203 143.46C679.687 144.812 679.429 146.533 679.429 148.622C679.429 150.711 679.687 152.444 680.203 153.821C680.72 155.198 681.445 156.23 682.379 156.918C683.337 157.606 684.444 157.951 685.697 157.951ZM709.932 161.933C707.99 161.933 706.208 161.392 704.585 160.31C702.988 159.204 701.71 157.656 700.751 155.665C699.792 153.673 699.313 151.326 699.313 148.622C699.313 145.918 699.78 143.583 700.714 141.617C701.673 139.625 702.951 138.089 704.549 137.008C706.146 135.926 707.916 135.385 709.858 135.385C711.825 135.385 713.607 135.926 715.204 137.008C716.802 138.089 718.068 139.625 719.002 141.617C719.961 143.583 720.44 145.931 720.44 148.659C720.44 151.363 719.961 153.71 719.002 155.701C718.068 157.692 716.802 159.229 715.204 160.31C713.631 161.392 711.874 161.933 709.932 161.933ZM709.858 157.951C711.136 157.951 712.242 157.606 713.177 156.918C714.111 156.23 714.836 155.198 715.352 153.821C715.893 152.444 716.163 150.711 716.163 148.622C716.163 146.557 715.893 144.837 715.352 143.46C714.836 142.084 714.098 141.063 713.14 140.4C712.206 139.712 711.112 139.367 709.858 139.367C708.604 139.367 707.498 139.712 706.54 140.4C705.606 141.063 704.88 142.084 704.364 143.46C703.848 144.812 703.59 146.533 703.59 148.622C703.59 150.711 703.848 152.444 704.364 153.821C704.88 155.198 705.606 156.23 706.54 156.918C707.498 157.606 708.604 157.951 709.858 157.951ZM734.093 161.933C732.151 161.933 730.369 161.392 728.746 160.31C727.149 159.204 725.87 157.656 724.912 155.665C723.953 153.673 723.474 151.326 723.474 148.622C723.474 145.918 723.941 143.583 724.875 141.617C725.833 139.625 727.112 138.089 728.709 137.008C730.307 135.926 732.077 135.385 734.019 135.385C735.985 135.385 737.768 135.926 739.365 137.008C740.963 138.089 742.229 139.625 743.163 141.617C744.122 143.583 744.601 145.931 744.601 148.659C744.601 151.363 744.122 153.71 743.163 155.701C742.229 157.692 740.963 159.229 739.365 160.31C737.792 161.392 736.035 161.933 734.093 161.933ZM734.019 157.951C735.297 157.951 736.403 157.606 737.337 156.918C738.271 156.23 738.997 155.198 739.513 153.821C740.054 152.444 740.324 150.711 740.324 148.622C740.324 146.557 740.054 144.837 739.513 143.46C738.997 142.084 738.259 141.063 737.3 140.4C736.366 139.712 735.273 139.367 734.019 139.367C732.765 139.367 731.659 139.712 730.7 140.4C729.766 141.063 729.041 142.084 728.525 143.46C728.009 144.812 727.751 146.533 727.751 148.622C727.751 150.711 728.009 152.444 728.525 153.821C729.041 155.198 729.766 156.23 730.7 156.918C731.659 157.606 732.765 157.951 734.019 157.951Z" fill="#2D3B31"/>
<circle cx="926.518" cy="148.036" r="116.22" stroke="#2D3C31" stroke-width="6.90418"/>
<path d="M848.678 164.954C846.398 164.954 844.402 164.504 842.692 163.604C841.012 162.704 839.482 161.384 838.102 159.643L841.567 156.178C842.437 157.438 843.457 158.458 844.627 159.238C845.797 160.018 847.208 160.408 848.858 160.408C850.598 160.408 851.978 160.033 852.998 159.283C854.048 158.533 854.573 157.468 854.573 156.088C854.573 155.038 854.303 154.183 853.763 153.523C853.223 152.863 852.503 152.323 851.603 151.903C850.733 151.453 849.758 151.062 848.678 150.732C847.628 150.372 846.563 149.982 845.482 149.562C844.432 149.112 843.457 148.557 842.557 147.897C841.687 147.237 840.982 146.382 840.442 145.332C839.902 144.282 839.632 142.947 839.632 141.326C839.632 139.466 840.082 137.891 840.982 136.601C841.912 135.281 843.157 134.276 844.717 133.586C846.278 132.896 848.018 132.551 849.938 132.551C851.798 132.551 853.523 132.956 855.113 133.766C856.704 134.576 858.009 135.611 859.029 136.871L855.563 140.336C854.663 139.316 853.733 138.521 852.773 137.951C851.843 137.381 850.853 137.096 849.803 137.096C848.123 137.096 846.833 137.426 845.932 138.086C845.032 138.716 844.582 139.676 844.582 140.966C844.582 141.927 844.852 142.707 845.392 143.307C845.962 143.877 846.698 144.372 847.598 144.792C848.498 145.182 849.473 145.557 850.523 145.917C851.603 146.277 852.683 146.682 853.763 147.132C854.843 147.582 855.834 148.167 856.734 148.887C857.634 149.577 858.354 150.477 858.894 151.588C859.464 152.698 859.749 154.093 859.749 155.773C859.749 158.593 858.744 160.829 856.734 162.479C854.753 164.129 852.068 164.954 848.678 164.954ZM847.958 169.004V128.5H851.558V169.004H847.958ZM863.484 161.444L875.095 149.112C876.055 148.092 876.835 147.177 877.435 146.367C878.035 145.557 878.47 144.792 878.74 144.072C879.01 143.352 879.145 142.617 879.145 141.867C879.145 140.456 878.68 139.361 877.75 138.581C876.85 137.771 875.695 137.366 874.285 137.366C872.785 137.366 871.464 137.741 870.324 138.491C869.184 139.241 868.164 140.411 867.264 142.002L863.664 139.031C864.894 136.901 866.409 135.296 868.209 134.216C870.009 133.106 872.095 132.551 874.465 132.551C876.415 132.551 878.125 132.941 879.595 133.721C881.065 134.501 882.206 135.596 883.016 137.006C883.826 138.386 884.231 139.991 884.231 141.822C884.231 143.142 884.066 144.327 883.736 145.377C883.436 146.397 882.911 147.432 882.161 148.482C881.411 149.502 880.375 150.702 879.055 152.083L870.144 161.309L863.484 161.444ZM863.484 164.504V161.444L867.939 159.868H884.861V164.504H863.484ZM901.378 164.954C899.008 164.954 896.833 164.294 894.853 162.974C892.902 161.624 891.342 159.733 890.172 157.303C889.002 154.873 888.417 152.008 888.417 148.707C888.417 145.407 888.987 142.557 890.127 140.156C891.297 137.726 892.857 135.851 894.808 134.531C896.758 133.211 898.918 132.551 901.288 132.551C903.689 132.551 905.864 133.211 907.814 134.531C909.764 135.851 911.309 137.726 912.45 140.156C913.62 142.557 914.205 145.422 914.205 148.752C914.205 152.053 913.62 154.918 912.45 157.348C911.309 159.778 909.764 161.654 907.814 162.974C905.894 164.294 903.749 164.954 901.378 164.954ZM901.288 160.093C902.848 160.093 904.199 159.673 905.339 158.833C906.479 157.993 907.364 156.733 907.994 155.053C908.654 153.373 908.984 151.258 908.984 148.707C908.984 146.187 908.654 144.087 907.994 142.407C907.364 140.726 906.464 139.481 905.294 138.671C904.154 137.831 902.818 137.411 901.288 137.411C899.758 137.411 898.408 137.831 897.238 138.671C896.098 139.481 895.213 140.726 894.583 142.407C893.953 144.057 893.638 146.157 893.638 148.707C893.638 151.258 893.953 153.373 894.583 155.053C895.213 156.733 896.098 157.993 897.238 158.833C898.408 159.673 899.758 160.093 901.288 160.093ZM921.489 164.954C920.529 164.954 919.734 164.639 919.104 164.009C918.504 163.349 918.204 162.554 918.204 161.624C918.204 160.663 918.504 159.868 919.104 159.238C919.734 158.608 920.529 158.293 921.489 158.293C922.449 158.293 923.229 158.608 923.829 159.238C924.459 159.868 924.774 160.663 924.774 161.624C924.774 162.554 924.459 163.349 923.829 164.009C923.229 164.639 922.449 164.954 921.489 164.954ZM941.724 164.954C939.354 164.954 937.179 164.294 935.199 162.974C933.249 161.624 931.688 159.733 930.518 157.303C929.348 154.873 928.763 152.008 928.763 148.707C928.763 145.407 929.333 142.557 930.473 140.156C931.643 137.726 933.203 135.851 935.154 134.531C937.104 133.211 939.264 132.551 941.634 132.551C944.035 132.551 946.21 133.211 948.16 134.531C950.11 135.851 951.655 137.726 952.796 140.156C953.966 142.557 954.551 145.422 954.551 148.752C954.551 152.053 953.966 154.918 952.796 157.348C951.655 159.778 950.11 161.654 948.16 162.974C946.24 164.294 944.095 164.954 941.724 164.954ZM941.634 160.093C943.195 160.093 944.545 159.673 945.685 158.833C946.825 157.993 947.71 156.733 948.34 155.053C949 153.373 949.33 151.258 949.33 148.707C949.33 146.187 949 144.087 948.34 142.407C947.71 140.726 946.81 139.481 945.64 138.671C944.5 137.831 943.165 137.411 941.634 137.411C940.104 137.411 938.754 137.831 937.584 138.671C936.444 139.481 935.559 140.726 934.929 142.407C934.299 144.057 933.984 146.157 933.984 148.707C933.984 151.258 934.299 153.373 934.929 155.053C935.559 156.733 936.444 157.993 937.584 158.833C938.754 159.673 940.104 160.093 941.634 160.093ZM971.215 164.954C968.845 164.954 966.669 164.294 964.689 162.974C962.739 161.624 961.179 159.733 960.009 157.303C958.839 154.873 958.253 152.008 958.253 148.707C958.253 145.407 958.824 142.557 959.964 140.156C961.134 137.726 962.694 135.851 964.644 134.531C966.594 133.211 968.755 132.551 971.125 132.551C973.525 132.551 975.7 133.211 977.651 134.531C979.601 135.851 981.146 137.726 982.286 140.156C983.456 142.557 984.041 145.422 984.041 148.752C984.041 152.053 983.456 154.918 982.286 157.348C981.146 159.778 979.601 161.654 977.651 162.974C975.73 164.294 973.585 164.954 971.215 164.954ZM971.125 160.093C972.685 160.093 974.035 159.673 975.175 158.833C976.315 157.993 977.2 156.733 977.831 155.053C978.491 153.373 978.821 151.258 978.821 148.707C978.821 146.187 978.491 144.087 977.831 142.407C977.2 140.726 976.3 139.481 975.13 138.671C973.99 137.831 972.655 137.411 971.125 137.411C969.595 137.411 968.245 137.831 967.074 138.671C965.934 139.481 965.049 140.726 964.419 142.407C963.789 144.057 963.474 146.157 963.474 148.707C963.474 151.258 963.789 153.373 964.419 155.053C965.049 156.733 965.934 157.993 967.074 158.833C968.245 159.673 969.595 160.093 971.125 160.093ZM1000.71 164.954C998.335 164.954 996.16 164.294 994.18 162.974C992.229 161.624 990.669 159.733 989.499 157.303C988.329 154.873 987.744 152.008 987.744 148.707C987.744 145.407 988.314 142.557 989.454 140.156C990.624 137.726 992.184 135.851 994.135 134.531C996.085 133.211 998.245 132.551 1000.62 132.551C1003.02 132.551 1005.19 133.211 1007.14 134.531C1009.09 135.851 1010.64 137.726 1011.78 140.156C1012.95 142.557 1013.53 145.422 1013.53 148.752C1013.53 152.053 1012.95 154.918 1011.78 157.348C1010.64 159.778 1009.09 161.654 1007.14 162.974C1005.22 164.294 1003.08 164.954 1000.71 164.954ZM1000.62 160.093C1002.18 160.093 1003.53 159.673 1004.67 158.833C1005.81 157.993 1006.69 156.733 1007.32 155.053C1007.98 153.373 1008.31 151.258 1008.31 148.707C1008.31 146.187 1007.98 144.087 1007.32 142.407C1006.69 140.726 1005.79 139.481 1004.62 138.671C1003.48 137.831 1002.15 137.411 1000.62 137.411C999.085 137.411 997.735 137.831 996.565 138.671C995.425 139.481 994.54 140.726 993.91 142.407C993.279 144.057 992.964 146.157 992.964 148.707C992.964 151.258 993.279 153.373 993.91 155.053C994.54 156.733 995.425 157.993 996.565 158.833C997.735 159.673 999.085 160.093 1000.62 160.093Z" fill="#2D3B31"/>
<circle cx="1223.32" cy="148.036" r="143.292" stroke="#2D3C31" stroke-width="8.51238"/>
<path d="M1127.91 169.413C1125.1 169.413 1122.64 168.858 1120.53 167.748C1118.46 166.638 1116.57 165.011 1114.87 162.865L1119.14 158.593C1120.21 160.146 1121.47 161.404 1122.91 162.366C1124.36 163.328 1126.1 163.809 1128.13 163.809C1130.28 163.809 1131.98 163.346 1133.24 162.421C1134.53 161.497 1135.18 160.183 1135.18 158.482C1135.18 157.187 1134.84 156.133 1134.18 155.319C1133.51 154.505 1132.63 153.839 1131.52 153.321C1130.44 152.766 1129.24 152.286 1127.91 151.879C1126.61 151.435 1125.3 150.954 1123.97 150.436C1122.67 149.881 1121.47 149.197 1120.36 148.383C1119.29 147.569 1118.42 146.515 1117.75 145.22C1117.09 143.925 1116.76 142.279 1116.76 140.282C1116.76 137.988 1117.31 136.046 1118.42 134.455C1119.57 132.828 1121.1 131.589 1123.03 130.738C1124.95 129.887 1127.09 129.462 1129.46 129.462C1131.76 129.462 1133.88 129.961 1135.84 130.96C1137.8 131.959 1139.41 133.235 1140.67 134.788L1136.4 139.061C1135.29 137.803 1134.14 136.823 1132.96 136.12C1131.81 135.417 1130.59 135.066 1129.3 135.066C1127.22 135.066 1125.63 135.473 1124.52 136.287C1123.41 137.063 1122.86 138.247 1122.86 139.838C1122.86 141.022 1123.19 141.983 1123.86 142.723C1124.56 143.426 1125.47 144.036 1126.58 144.554C1127.69 145.035 1128.89 145.498 1130.18 145.941C1131.52 146.385 1132.85 146.885 1134.18 147.44C1135.51 147.994 1136.73 148.716 1137.84 149.604C1138.95 150.454 1139.84 151.564 1140.5 152.933C1141.21 154.302 1141.56 156.022 1141.56 158.093C1141.56 161.571 1140.32 164.326 1137.84 166.361C1135.4 168.396 1132.09 169.413 1127.91 169.413ZM1127.02 174.407V124.468H1131.46V174.407H1127.02ZM1158.26 169.413C1155.67 169.413 1153.32 168.95 1151.21 168.026C1149.14 167.064 1147.38 165.677 1145.94 163.864L1150.27 159.536C1151.05 160.72 1152.14 161.663 1153.54 162.366C1154.95 163.069 1156.48 163.42 1158.15 163.42C1159.74 163.42 1161.11 163.124 1162.25 162.532C1163.4 161.94 1164.29 161.108 1164.92 160.035C1165.58 158.963 1165.92 157.723 1165.92 156.318C1165.92 154.838 1165.58 153.58 1164.92 152.544C1164.29 151.509 1163.36 150.713 1162.14 150.159C1160.96 149.567 1159.52 149.271 1157.82 149.271C1157.15 149.271 1156.47 149.326 1155.76 149.437C1155.06 149.511 1154.43 149.641 1153.88 149.826L1156.71 146.163C1157.48 145.867 1158.3 145.627 1159.15 145.442C1160.04 145.22 1160.89 145.109 1161.7 145.109C1163.7 145.109 1165.49 145.59 1167.08 146.552C1168.71 147.514 1169.99 148.864 1170.91 150.602C1171.87 152.304 1172.35 154.32 1172.35 156.651C1172.35 159.166 1171.76 161.386 1170.58 163.309C1169.39 165.233 1167.75 166.731 1165.64 167.804C1163.53 168.876 1161.07 169.413 1158.26 169.413ZM1153.88 149.826V146.052L1164.25 133.956L1171.91 133.79L1161.09 146.219L1153.88 149.826ZM1147.88 135.732V130.016H1171.91V133.79L1166.42 135.732H1147.88ZM1192.83 169.413C1189.91 169.413 1187.23 168.599 1184.78 166.971C1182.38 165.307 1180.46 162.976 1179.01 159.98C1177.57 156.984 1176.85 153.451 1176.85 149.382C1176.85 145.313 1177.55 141.798 1178.96 138.839C1180.4 135.843 1182.32 133.531 1184.73 131.903C1187.13 130.275 1189.8 129.462 1192.72 129.462C1195.68 129.462 1198.36 130.275 1200.77 131.903C1203.17 133.531 1205.07 135.843 1206.48 138.839C1207.92 141.798 1208.64 145.331 1208.64 149.437C1208.64 153.506 1207.92 157.039 1206.48 160.035C1205.07 163.032 1203.17 165.344 1200.77 166.971C1198.4 168.599 1195.75 169.413 1192.83 169.413ZM1192.72 163.42C1194.64 163.42 1196.31 162.902 1197.71 161.866C1199.12 160.831 1200.21 159.277 1200.99 157.205C1201.8 155.134 1202.21 152.526 1202.21 149.382C1202.21 146.274 1201.8 143.685 1200.99 141.613C1200.21 139.542 1199.1 138.007 1197.66 137.008C1196.25 135.972 1194.61 135.454 1192.72 135.454C1190.83 135.454 1189.17 135.972 1187.73 137.008C1186.32 138.007 1185.23 139.542 1184.45 141.613C1183.68 143.648 1183.29 146.237 1183.29 149.382C1183.29 152.526 1183.68 155.134 1184.45 157.205C1185.23 159.277 1186.32 160.831 1187.73 161.866C1189.17 162.902 1190.83 163.42 1192.72 163.42ZM1217.63 169.413C1216.44 169.413 1215.46 169.024 1214.69 168.248C1213.95 167.434 1213.58 166.453 1213.58 165.307C1213.58 164.123 1213.95 163.143 1214.69 162.366C1215.46 161.589 1216.44 161.201 1217.63 161.201C1218.81 161.201 1219.77 161.589 1220.51 162.366C1221.29 163.143 1221.68 164.123 1221.68 165.307C1221.68 166.453 1221.29 167.434 1220.51 168.248C1219.77 169.024 1218.81 169.413 1217.63 169.413ZM1242.57 169.413C1239.65 169.413 1236.97 168.599 1234.53 166.971C1232.12 165.307 1230.2 162.976 1228.76 159.98C1227.32 156.984 1226.59 153.451 1226.59 149.382C1226.59 145.313 1227.3 141.798 1228.7 138.839C1230.15 135.843 1232.07 133.531 1234.47 131.903C1236.88 130.275 1239.54 129.462 1242.46 129.462C1245.42 129.462 1248.1 130.275 1250.51 131.903C1252.91 133.531 1254.82 135.843 1256.22 138.839C1257.67 141.798 1258.39 145.331 1258.39 149.437C1258.39 153.506 1257.67 157.039 1256.22 160.035C1254.82 163.032 1252.91 165.344 1250.51 166.971C1248.14 168.599 1245.5 169.413 1242.57 169.413ZM1242.46 163.42C1244.39 163.42 1246.05 162.902 1247.46 161.866C1248.86 160.831 1249.95 159.277 1250.73 157.205C1251.55 155.134 1251.95 152.526 1251.95 149.382C1251.95 146.274 1251.55 143.685 1250.73 141.613C1249.95 139.542 1248.84 138.007 1247.4 137.008C1246 135.972 1244.35 135.454 1242.46 135.454C1240.58 135.454 1238.91 135.972 1237.47 137.008C1236.06 138.007 1234.97 139.542 1234.2 141.613C1233.42 143.648 1233.03 146.237 1233.03 149.382C1233.03 152.526 1233.42 155.134 1234.2 157.205C1234.97 159.277 1236.06 160.831 1237.47 161.866C1238.91 162.902 1240.58 163.42 1242.46 163.42ZM1278.93 169.413C1276.01 169.413 1273.33 168.599 1270.89 166.971C1268.48 165.307 1266.56 162.976 1265.12 159.98C1263.68 156.984 1262.95 153.451 1262.95 149.382C1262.95 145.313 1263.66 141.798 1265.06 138.839C1266.51 135.843 1268.43 133.531 1270.83 131.903C1273.24 130.275 1275.9 129.462 1278.82 129.462C1281.78 129.462 1284.46 130.275 1286.87 131.903C1289.27 133.531 1291.18 135.843 1292.58 138.839C1294.03 141.798 1294.75 145.331 1294.75 149.437C1294.75 153.506 1294.03 157.039 1292.58 160.035C1291.18 163.032 1289.27 165.344 1286.87 166.971C1284.5 168.599 1281.86 169.413 1278.93 169.413ZM1278.82 163.42C1280.75 163.42 1282.41 162.902 1283.82 161.866C1285.22 160.831 1286.31 159.277 1287.09 157.205C1287.9 155.134 1288.31 152.526 1288.31 149.382C1288.31 146.274 1287.9 143.685 1287.09 141.613C1286.31 139.542 1285.2 138.007 1283.76 137.008C1282.36 135.972 1280.71 135.454 1278.82 135.454C1276.94 135.454 1275.27 135.972 1273.83 137.008C1272.42 138.007 1271.33 139.542 1270.56 141.613C1269.78 143.648 1269.39 146.237 1269.39 149.382C1269.39 152.526 1269.78 155.134 1270.56 157.205C1271.33 159.277 1272.42 160.831 1273.83 161.866C1275.27 162.902 1276.94 163.42 1278.82 163.42ZM1315.29 169.413C1312.37 169.413 1309.69 168.599 1307.25 166.971C1304.84 165.307 1302.92 162.976 1301.48 159.98C1300.03 156.984 1299.31 153.451 1299.31 149.382C1299.31 145.313 1300.02 141.798 1301.42 138.839C1302.86 135.843 1304.79 133.531 1307.19 131.903C1309.6 130.275 1312.26 129.462 1315.18 129.462C1318.14 129.462 1320.82 130.275 1323.23 131.903C1325.63 133.531 1327.54 135.843 1328.94 138.839C1330.39 141.798 1331.11 145.331 1331.11 149.437C1331.11 153.506 1330.39 157.039 1328.94 160.035C1327.54 163.032 1325.63 165.344 1323.23 166.971C1320.86 168.599 1318.22 169.413 1315.29 169.413ZM1315.18 163.42C1317.11 163.42 1318.77 162.902 1320.18 161.866C1321.58 160.831 1322.67 159.277 1323.45 157.205C1324.26 155.134 1324.67 152.526 1324.67 149.382C1324.67 146.274 1324.26 143.685 1323.45 141.613C1322.67 139.542 1321.56 138.007 1320.12 137.008C1318.72 135.972 1317.07 135.454 1315.18 135.454C1313.3 135.454 1311.63 135.972 1310.19 137.008C1308.78 138.007 1307.69 139.542 1306.92 141.613C1306.14 143.648 1305.75 146.237 1305.75 149.382C1305.75 152.526 1306.14 155.134 1306.92 157.205C1307.69 159.277 1308.78 160.831 1310.19 161.866C1311.63 162.902 1313.3 163.42 1315.18 163.42Z" fill="#2D3B31"/>
<path d="M51 147.5H105.5" stroke="#32BB30" stroke-width="3"/>
<path d="M185.5 150H230.5" stroke="#32BB30" stroke-width="3"/>
<path d="M353.5 149H394" stroke="#2D3B31" stroke-width="3"/>
<path d="M542.5 147.5H582.5" stroke="#2D3B31" stroke-width="3"/>
<path d="M771.5 146.5H810" stroke="#2D3B31" stroke-width="3"/>
<path d="M1041.5 148.5H1081" stroke="#2D3B31" stroke-width="3"/>
</svg>
